%TF.GenerationSoftware,KiCad,Pcbnew,9.0.2*%
%TF.CreationDate,2025-07-18T09:27:23+08:00*%
%TF.ProjectId,Pathfinder,50617468-6669-46e6-9465-722e6b696361,rev?*%
%TF.SameCoordinates,Original*%
%TF.FileFunction,Profile,NP*%
%FSLAX46Y46*%
G04 Gerber Fmt 4.6, Leading zero omitted, Abs format (unit mm)*
G04 Created by KiCad (PCBNEW 9.0.2) date 2025-07-18 09:27:23*
%MOMM*%
%LPD*%
G01*
G04 APERTURE LIST*
%TA.AperFunction,Profile*%
%ADD10C,0.050000*%
%TD*%
%TA.AperFunction,Profile*%
%ADD11C,0.000000*%
%TD*%
G04 APERTURE END LIST*
D10*
X186055000Y-145415000D02*
X186055000Y-78105000D01*
X103810284Y-134384850D02*
X103810283Y-62465153D01*
X138430000Y-58420000D02*
X107267290Y-58375801D01*
X156210000Y-71120000D02*
X138430000Y-58420000D01*
X173990000Y-71120000D02*
X156210000Y-71120000D01*
X103810283Y-62465152D02*
G75*
G02*
X107267290Y-58375798I46684717J-35959848D01*
G01*
X186055000Y-78105000D02*
X173990000Y-71120000D01*
X186055000Y-145414999D02*
G75*
G02*
X103810283Y-134384850I-35560000J46989999D01*
G01*
D11*
%TA.AperFunction,Profile*%
%TO.C,Bno055*%
G36*
X138089929Y-136949749D02*
G01*
X138273939Y-137025968D01*
X138439544Y-137136621D01*
X138580379Y-137277456D01*
X138691032Y-137443061D01*
X138767251Y-137627071D01*
X138806108Y-137822415D01*
X138806108Y-138021585D01*
X138767251Y-138216929D01*
X138691032Y-138400939D01*
X138580379Y-138566544D01*
X138439544Y-138707379D01*
X138273939Y-138818032D01*
X138089929Y-138894251D01*
X137894585Y-138933108D01*
X137695415Y-138933108D01*
X137500071Y-138894251D01*
X137316061Y-138818032D01*
X137150456Y-138707379D01*
X137009621Y-138566544D01*
X136898968Y-138400939D01*
X136822749Y-138216929D01*
X136783892Y-138021585D01*
X136783892Y-137822415D01*
X136822749Y-137627071D01*
X136898968Y-137443061D01*
X137009621Y-137277456D01*
X137150456Y-137136621D01*
X137316061Y-137025968D01*
X137500071Y-136949749D01*
X137695415Y-136910892D01*
X137894585Y-136910892D01*
X138089929Y-136949749D01*
G37*
%TD.AperFunction*%
%TA.AperFunction,Profile*%
G36*
X138089929Y-152189749D02*
G01*
X138273939Y-152265968D01*
X138439544Y-152376621D01*
X138580379Y-152517456D01*
X138691032Y-152683061D01*
X138767251Y-152867071D01*
X138806108Y-153062415D01*
X138806108Y-153261585D01*
X138767251Y-153456929D01*
X138691032Y-153640939D01*
X138580379Y-153806544D01*
X138439544Y-153947379D01*
X138273939Y-154058032D01*
X138089929Y-154134251D01*
X137894585Y-154173108D01*
X137695415Y-154173108D01*
X137500071Y-154134251D01*
X137316061Y-154058032D01*
X137150456Y-153947379D01*
X137009621Y-153806544D01*
X136898968Y-153640939D01*
X136822749Y-153456929D01*
X136783892Y-153261585D01*
X136783892Y-153062415D01*
X136822749Y-152867071D01*
X136898968Y-152683061D01*
X137009621Y-152517456D01*
X137150456Y-152376621D01*
X137316061Y-152265968D01*
X137500071Y-152189749D01*
X137695415Y-152150892D01*
X137894585Y-152150892D01*
X138089929Y-152189749D01*
G37*
%TD.AperFunction*%
%TA.AperFunction,Profile*%
G36*
X159679929Y-136949749D02*
G01*
X159863939Y-137025968D01*
X160029544Y-137136621D01*
X160170379Y-137277456D01*
X160281032Y-137443061D01*
X160357251Y-137627071D01*
X160396108Y-137822415D01*
X160396108Y-138021585D01*
X160357251Y-138216929D01*
X160281032Y-138400939D01*
X160170379Y-138566544D01*
X160029544Y-138707379D01*
X159863939Y-138818032D01*
X159679929Y-138894251D01*
X159484585Y-138933108D01*
X159285415Y-138933108D01*
X159090071Y-138894251D01*
X158906061Y-138818032D01*
X158740456Y-138707379D01*
X158599621Y-138566544D01*
X158488968Y-138400939D01*
X158412749Y-138216929D01*
X158373892Y-138021585D01*
X158373892Y-137822415D01*
X158412749Y-137627071D01*
X158488968Y-137443061D01*
X158599621Y-137277456D01*
X158740456Y-137136621D01*
X158906061Y-137025968D01*
X159090071Y-136949749D01*
X159285415Y-136910892D01*
X159484585Y-136910892D01*
X159679929Y-136949749D01*
G37*
%TD.AperFunction*%
%TA.AperFunction,Profile*%
G36*
X159679929Y-152189749D02*
G01*
X159863939Y-152265968D01*
X160029544Y-152376621D01*
X160170379Y-152517456D01*
X160281032Y-152683061D01*
X160357251Y-152867071D01*
X160396108Y-153062415D01*
X160396108Y-153261585D01*
X160357251Y-153456929D01*
X160281032Y-153640939D01*
X160170379Y-153806544D01*
X160029544Y-153947379D01*
X159863939Y-154058032D01*
X159679929Y-154134251D01*
X159484585Y-154173108D01*
X159285415Y-154173108D01*
X159090071Y-154134251D01*
X158906061Y-154058032D01*
X158740456Y-153947379D01*
X158599621Y-153806544D01*
X158488968Y-153640939D01*
X158412749Y-153456929D01*
X158373892Y-153261585D01*
X158373892Y-153062415D01*
X158412749Y-152867071D01*
X158488968Y-152683061D01*
X158599621Y-152517456D01*
X158740456Y-152376621D01*
X158906061Y-152265968D01*
X159090071Y-152189749D01*
X159285415Y-152150892D01*
X159484585Y-152150892D01*
X159679929Y-152189749D01*
G37*
%TD.AperFunction*%
%TD*%
M02*
