%TF.GenerationSoftware,KiCad,Pcbnew,9.0.2*%
%TF.CreationDate,2025-07-18T09:27:23+08:00*%
%TF.ProjectId,Pathfinder,50617468-6669-46e6-9465-722e6b696361,rev?*%
%TF.SameCoordinates,Original*%
%TF.FileFunction,Copper,L2,Inr*%
%TF.FilePolarity,Positive*%
%FSLAX46Y46*%
G04 Gerber Fmt 4.6, Leading zero omitted, Abs format (unit mm)*
G04 Created by KiCad (PCBNEW 9.0.2) date 2025-07-18 09:27:23*
%MOMM*%
%LPD*%
G01*
G04 APERTURE LIST*
%TA.AperFunction,ComponentPad*%
%ADD10R,1.530000X1.530000*%
%TD*%
%TA.AperFunction,ComponentPad*%
%ADD11C,1.530000*%
%TD*%
%TA.AperFunction,ComponentPad*%
%ADD12C,2.000000*%
%TD*%
%TA.AperFunction,ComponentPad*%
%ADD13R,1.700000X1.700000*%
%TD*%
%TA.AperFunction,ComponentPad*%
%ADD14C,1.700000*%
%TD*%
%TA.AperFunction,ComponentPad*%
%ADD15C,6.000000*%
%TD*%
%TA.AperFunction,ComponentPad*%
%ADD16R,6.000000X6.000000*%
%TD*%
%TA.AperFunction,ComponentPad*%
%ADD17C,1.829000*%
%TD*%
%TA.AperFunction,ViaPad*%
%ADD18C,0.762000*%
%TD*%
G04 APERTURE END LIST*
D10*
%TO.N,/SCK*%
%TO.C,U1*%
X118745000Y-81915000D03*
D11*
%TO.N,/MISO*%
X121285000Y-81915000D03*
%TO.N,/MOSI*%
X118745000Y-84455000D03*
%TO.N,/CSN*%
X121285000Y-84455000D03*
%TO.N,unconnected-(U1A-VDD-PadCN7_5)*%
X118745000Y-86995000D03*
%TO.N,unconnected-(U1A-E5V-PadCN7_6)*%
X121285000Y-86995000D03*
%TO.N,unconnected-(U1A-BOOT0-PadCN7_7)*%
X118745000Y-89535000D03*
%TO.N,GND*%
X121285000Y-89535000D03*
%TO.N,N/C*%
X118745000Y-92075000D03*
X121285000Y-92075000D03*
X118745000Y-94615000D03*
%TO.N,unconnected-(U1A-CN7_IOREF-PadCN7_12)*%
X121285000Y-94615000D03*
%TO.N,/CE*%
X118745000Y-97155000D03*
%TO.N,Net-(U1A-CN7_RESET)*%
X121285000Y-97155000D03*
%TO.N,unconnected-(U1A-PA14-PadCN7_15)*%
X118745000Y-99695000D03*
%TO.N,+3.3V*%
X121285000Y-99695000D03*
%TO.N,unconnected-(U1A-PA15-PadCN7_17)*%
X118745000Y-102235000D03*
%TO.N,unconnected-(U1A-CN7_+5V-PadCN7_18)*%
X121285000Y-102235000D03*
%TO.N,GND*%
X118745000Y-104775000D03*
X121285000Y-104775000D03*
%TO.N,unconnected-(U1A-PB7-PadCN7_21)*%
X118745000Y-107315000D03*
%TO.N,GND*%
X121285000Y-107315000D03*
%TO.N,unconnected-(U1A-PC13-PadCN7_23)*%
X118745000Y-109855000D03*
%TO.N,+BATT*%
X121285000Y-109855000D03*
%TO.N,unconnected-(U1A-PC14-PadCN7_25)*%
X118745000Y-112395000D03*
%TO.N,N/C*%
X121285000Y-112395000D03*
%TO.N,unconnected-(U1A-PC15-PadCN7_27)*%
X118745000Y-114935000D03*
%TO.N,/PA_0*%
X121285000Y-114935000D03*
%TO.N,/PH_0*%
X118745000Y-117475000D03*
%TO.N,/PA_1*%
X121285000Y-117475000D03*
%TO.N,/PH_1*%
X118745000Y-120015000D03*
%TO.N,unconnected-(U1A-PA4-PadCN7_32)*%
X121285000Y-120015000D03*
%TO.N,unconnected-(U1A-VBAT-PadCN7_33)*%
X118745000Y-122555000D03*
%TO.N,/PB_0*%
X121285000Y-122555000D03*
%TO.N,unconnected-(U1A-PC2-PadCN7_35)*%
X118745000Y-125095000D03*
%TO.N,/SDA*%
X121285000Y-125095000D03*
%TO.N,unconnected-(U1A-PC3-PadCN7_37)*%
X118745000Y-127635000D03*
%TO.N,/SCL*%
X121285000Y-127635000D03*
D10*
%TO.N,/PC_9*%
X179705000Y-81915000D03*
D11*
%TO.N,unconnected-(U1B-PC8-PadCN10_2)*%
X182245000Y-81915000D03*
%TO.N,/PB_8*%
X179705000Y-84455000D03*
%TO.N,unconnected-(U1B-PC6-PadCN10_4)*%
X182245000Y-84455000D03*
%TO.N,/PB_9*%
X179705000Y-86995000D03*
%TO.N,unconnected-(U1B-PC5-PadCN10_6)*%
X182245000Y-86995000D03*
%TO.N,unconnected-(U1B-AVDD-PadCN10_7)*%
X179705000Y-89535000D03*
%TO.N,unconnected-(U1B-U5V-PadCN10_8)*%
X182245000Y-89535000D03*
%TO.N,GND*%
X179705000Y-92075000D03*
%TO.N,N/C*%
X182245000Y-92075000D03*
%TO.N,/PA_5*%
X179705000Y-94615000D03*
%TO.N,unconnected-(U1B-PA12-PadCN10_12)*%
X182245000Y-94615000D03*
%TO.N,/PA_6*%
X179705000Y-97155000D03*
%TO.N,unconnected-(U1B-PA11-PadCN10_14)*%
X182245000Y-97155000D03*
%TO.N,/PA_7*%
X179705000Y-99695000D03*
%TO.N,unconnected-(U1B-PB12-PadCN10_16)*%
X182245000Y-99695000D03*
%TO.N,/PB_6*%
X179705000Y-102235000D03*
%TO.N,N/C*%
X182245000Y-102235000D03*
%TO.N,/PC_7*%
X179705000Y-104775000D03*
%TO.N,GND*%
X182245000Y-104775000D03*
%TO.N,/PA_9*%
X179705000Y-107315000D03*
%TO.N,unconnected-(U1B-PB2-PadCN10_22)*%
X182245000Y-107315000D03*
%TO.N,/PA_8*%
X179705000Y-109855000D03*
%TO.N,unconnected-(U1B-PB1-PadCN10_24)*%
X182245000Y-109855000D03*
%TO.N,/PB_10*%
X179705000Y-112395000D03*
%TO.N,unconnected-(U1B-PB15-PadCN10_26)*%
X182245000Y-112395000D03*
%TO.N,/PB_4*%
X179705000Y-114935000D03*
%TO.N,unconnected-(U1B-PB14-PadCN10_28)*%
X182245000Y-114935000D03*
%TO.N,/PB_5*%
X179705000Y-117475000D03*
%TO.N,unconnected-(U1B-PB13-PadCN10_30)*%
X182245000Y-117475000D03*
%TO.N,/PB_3*%
X179705000Y-120015000D03*
%TO.N,unconnected-(U1B-AGND-PadCN10_32)*%
X182245000Y-120015000D03*
%TO.N,/PA_10*%
X179705000Y-122555000D03*
%TO.N,unconnected-(U1B-PC4-PadCN10_34)*%
X182245000Y-122555000D03*
%TO.N,unconnected-(U1B-PA2-PadCN10_35)*%
X179705000Y-125095000D03*
%TO.N,N/C*%
X182245000Y-125095000D03*
%TO.N,unconnected-(U1B-PA3-PadCN10_37)*%
X179705000Y-127635000D03*
%TO.N,N/C*%
X182245000Y-127635000D03*
%TD*%
D12*
%TO.N,N/C*%
%TO.C,SW2*%
X113085000Y-88115000D03*
%TO.N,Net-(U1A-CN7_RESET)*%
X113085000Y-94615000D03*
%TO.N,GND*%
X108585000Y-88115000D03*
X108585000Y-94615000D03*
%TD*%
D13*
%TO.N,/PC_9*%
%TO.C,Coxa2*%
X126365000Y-88265000D03*
D14*
%TO.N,+6VA*%
X128905000Y-88265000D03*
%TO.N,GND*%
X131445000Y-88265000D03*
%TD*%
D13*
%TO.N,/PA_6*%
%TO.C,Femur1*%
X126365000Y-105410000D03*
D14*
%TO.N,+6VA*%
X128905000Y-105410000D03*
%TO.N,GND*%
X131445000Y-105410000D03*
%TD*%
D13*
%TO.N,/PB_0*%
%TO.C,Tibia5*%
X126365000Y-122555000D03*
D14*
%TO.N,+6VC*%
X128905000Y-122555000D03*
%TO.N,GND*%
X131445000Y-122555000D03*
%TD*%
D13*
%TO.N,/PA_7*%
%TO.C,Tibia1*%
X126365000Y-109220000D03*
D14*
%TO.N,+6VA*%
X128905000Y-109220000D03*
%TO.N,GND*%
X131445000Y-109220000D03*
%TD*%
D13*
%TO.N,GND*%
%TO.C,U2*%
X135255000Y-73660000D03*
D14*
%TO.N,+3.3V*%
X132715000Y-73660000D03*
%TO.N,/CE*%
X135255000Y-71120000D03*
%TO.N,/CSN*%
X132715000Y-71120000D03*
%TO.N,/SCK*%
X135255000Y-68580000D03*
%TO.N,/MOSI*%
X132715000Y-68580000D03*
%TO.N,/MISO*%
X135255000Y-66040000D03*
%TO.N,unconnected-(U2-IRQ-Pad8)*%
X132715000Y-66040000D03*
%TD*%
D13*
%TO.N,/PC_7*%
%TO.C,Femur3*%
X174625000Y-92060000D03*
D14*
%TO.N,+6VB*%
X172085000Y-92060000D03*
%TO.N,GND*%
X169545000Y-92060000D03*
%TD*%
D13*
%TO.N,/PA_8*%
%TO.C,Coxa4*%
X174625000Y-101600000D03*
D14*
%TO.N,+6VB*%
X172085000Y-101600000D03*
%TO.N,GND*%
X169545000Y-101600000D03*
%TD*%
D12*
%TO.N,Net-(Bno055-RST)*%
%TO.C,SW1*%
X132135000Y-137795000D03*
%TO.N,N/C*%
X132135000Y-144295000D03*
%TO.N,GND*%
X127635000Y-137795000D03*
X127635000Y-144295000D03*
%TD*%
D13*
%TO.N,/PA_0*%
%TO.C,Coxa5*%
X126365000Y-114935000D03*
D14*
%TO.N,+6VC*%
X128905000Y-114935000D03*
%TO.N,GND*%
X131445000Y-114935000D03*
%TD*%
D13*
%TO.N,/PA_9*%
%TO.C,Tibia3*%
X174625000Y-95885000D03*
D14*
%TO.N,+6VB*%
X172085000Y-95885000D03*
%TO.N,GND*%
X169545000Y-95885000D03*
%TD*%
D13*
%TO.N,/PB_9*%
%TO.C,Tibia2*%
X126365000Y-95885000D03*
D14*
%TO.N,+6VA*%
X128905000Y-95885000D03*
%TO.N,GND*%
X131445000Y-95885000D03*
%TD*%
D15*
%TO.N,GND*%
%TO.C,J1*%
X139700000Y-111340000D03*
D16*
%TO.N,+BATT*%
X139700000Y-104140000D03*
%TD*%
D13*
%TO.N,/PB_6*%
%TO.C,Coxa3*%
X174625000Y-88265000D03*
D14*
%TO.N,+6VB*%
X172085000Y-88265000D03*
%TO.N,GND*%
X169545000Y-88265000D03*
%TD*%
D13*
%TO.N,/PB_3*%
%TO.C,Femur6*%
X174625000Y-118745000D03*
D14*
%TO.N,+6VC*%
X172085000Y-118745000D03*
%TO.N,GND*%
X169545000Y-118745000D03*
%TD*%
D13*
%TO.N,/PB_10*%
%TO.C,Femur4*%
X174625000Y-105395000D03*
D14*
%TO.N,+6VB*%
X172085000Y-105395000D03*
%TO.N,GND*%
X169545000Y-105395000D03*
%TD*%
D17*
%TO.N,N/C*%
%TO.C,Bno055*%
X152400000Y-136652000D03*
X144780000Y-154432000D03*
%TO.N,GND*%
X149860000Y-136652000D03*
%TO.N,N/C*%
X147320000Y-154432000D03*
X152400000Y-154432000D03*
X149860000Y-154432000D03*
%TO.N,Net-(Bno055-RST)*%
X142240000Y-136652000D03*
%TO.N,/SCL*%
X144780000Y-136652000D03*
%TO.N,/SDA*%
X147320000Y-136652000D03*
%TO.N,+3.3V*%
X154940000Y-136652000D03*
%TD*%
D13*
%TO.N,/PB_4*%
%TO.C,Tibia4*%
X174625000Y-109220000D03*
D14*
%TO.N,+6VB*%
X172085000Y-109220000D03*
%TO.N,GND*%
X169545000Y-109220000D03*
%TD*%
D13*
%TO.N,/PB_5*%
%TO.C,Coxa6*%
X174625000Y-114935000D03*
D14*
%TO.N,+6VC*%
X172085000Y-114935000D03*
%TO.N,GND*%
X169545000Y-114935000D03*
%TD*%
D13*
%TO.N,/PA_5*%
%TO.C,Coxa1*%
X126365000Y-101600000D03*
D14*
%TO.N,+6VA*%
X128905000Y-101600000D03*
%TO.N,GND*%
X131445000Y-101600000D03*
%TD*%
D13*
%TO.N,/PA_10*%
%TO.C,Tibia6*%
X174625000Y-122555000D03*
D14*
%TO.N,+6VC*%
X172085000Y-122555000D03*
%TO.N,GND*%
X169545000Y-122555000D03*
%TD*%
D13*
%TO.N,/PA_1*%
%TO.C,Femur5*%
X126365000Y-118745000D03*
D14*
%TO.N,+6VC*%
X128905000Y-118745000D03*
%TO.N,GND*%
X131445000Y-118745000D03*
%TD*%
D13*
%TO.N,/PB_8*%
%TO.C,Femur2*%
X126365000Y-92075000D03*
D14*
%TO.N,+6VA*%
X128905000Y-92075000D03*
%TO.N,GND*%
X131445000Y-92075000D03*
%TD*%
D18*
%TO.N,+BATT*%
X146050000Y-100965000D03*
X144145000Y-120650000D03*
X158115000Y-92075000D03*
%TO.N,+6VA*%
X137795000Y-90170000D03*
%TO.N,+6VB*%
X165100000Y-102870000D03*
%TO.N,+6VC*%
X161925000Y-121285000D03*
%TD*%
%TA.AperFunction,Conductor*%
%TO.N,+6VA*%
G36*
X142818039Y-83839685D02*
G01*
X142863794Y-83892489D01*
X142875000Y-83944000D01*
X142875000Y-98936000D01*
X142855315Y-99003039D01*
X142802511Y-99048794D01*
X142751000Y-99060000D01*
X123825000Y-99060000D01*
X123825000Y-94987135D01*
X125014500Y-94987135D01*
X125014500Y-96782870D01*
X125014501Y-96782876D01*
X125020908Y-96842483D01*
X125071202Y-96977328D01*
X125071206Y-96977335D01*
X125157452Y-97092544D01*
X125157455Y-97092547D01*
X125272664Y-97178793D01*
X125272671Y-97178797D01*
X125407517Y-97229091D01*
X125407516Y-97229091D01*
X125414444Y-97229835D01*
X125467127Y-97235500D01*
X127262872Y-97235499D01*
X127322483Y-97229091D01*
X127457331Y-97178796D01*
X127572546Y-97092546D01*
X127658796Y-96977331D01*
X127709091Y-96842483D01*
X127715500Y-96782873D01*
X127715499Y-96758979D01*
X127718330Y-96745963D01*
X127728940Y-96726525D01*
X127735179Y-96705275D01*
X127751803Y-96684643D01*
X127751808Y-96684636D01*
X127751811Y-96684634D01*
X127751818Y-96684626D01*
X128422037Y-96014408D01*
X128439075Y-96077993D01*
X128504901Y-96192007D01*
X128597993Y-96285099D01*
X128712007Y-96350925D01*
X128775590Y-96367962D01*
X128143282Y-97000269D01*
X128143282Y-97000270D01*
X128197449Y-97039624D01*
X128386782Y-97136095D01*
X128588870Y-97201757D01*
X128798754Y-97235000D01*
X129011246Y-97235000D01*
X129221127Y-97201757D01*
X129221130Y-97201757D01*
X129423217Y-97136095D01*
X129612554Y-97039622D01*
X129666716Y-97000270D01*
X129666717Y-97000270D01*
X129034408Y-96367962D01*
X129097993Y-96350925D01*
X129212007Y-96285099D01*
X129305099Y-96192007D01*
X129370925Y-96077993D01*
X129387962Y-96014408D01*
X130020270Y-96646717D01*
X130020270Y-96646716D01*
X130059622Y-96592555D01*
X130064232Y-96583507D01*
X130112205Y-96532709D01*
X130180025Y-96515912D01*
X130246161Y-96538447D01*
X130285204Y-96583504D01*
X130289949Y-96592817D01*
X130414890Y-96764786D01*
X130565213Y-96915109D01*
X130737179Y-97040048D01*
X130737181Y-97040049D01*
X130737184Y-97040051D01*
X130926588Y-97136557D01*
X131128757Y-97202246D01*
X131338713Y-97235500D01*
X131338714Y-97235500D01*
X131551286Y-97235500D01*
X131551287Y-97235500D01*
X131761243Y-97202246D01*
X131963412Y-97136557D01*
X132152816Y-97040051D01*
X132239138Y-96977335D01*
X132324786Y-96915109D01*
X132324788Y-96915106D01*
X132324792Y-96915104D01*
X132475104Y-96764792D01*
X132475106Y-96764788D01*
X132475109Y-96764786D01*
X132600048Y-96592820D01*
X132600050Y-96592817D01*
X132600051Y-96592816D01*
X132696557Y-96403412D01*
X132762246Y-96201243D01*
X132795500Y-95991287D01*
X132795500Y-95778713D01*
X132762246Y-95568757D01*
X132696557Y-95366588D01*
X132600051Y-95177184D01*
X132600049Y-95177181D01*
X132600048Y-95177179D01*
X132475109Y-95005213D01*
X132324786Y-94854890D01*
X132152820Y-94729951D01*
X131963414Y-94633444D01*
X131963413Y-94633443D01*
X131963412Y-94633443D01*
X131761243Y-94567754D01*
X131761241Y-94567753D01*
X131761240Y-94567753D01*
X131599957Y-94542208D01*
X131551287Y-94534500D01*
X131338713Y-94534500D01*
X131290042Y-94542208D01*
X131128760Y-94567753D01*
X130926585Y-94633444D01*
X130737179Y-94729951D01*
X130565213Y-94854890D01*
X130414890Y-95005213D01*
X130289949Y-95177182D01*
X130285202Y-95186499D01*
X130237227Y-95237293D01*
X130169405Y-95254087D01*
X130103271Y-95231548D01*
X130064234Y-95186495D01*
X130059626Y-95177452D01*
X130020270Y-95123282D01*
X130020269Y-95123282D01*
X129387962Y-95755590D01*
X129370925Y-95692007D01*
X129305099Y-95577993D01*
X129212007Y-95484901D01*
X129097993Y-95419075D01*
X129034409Y-95402037D01*
X129666716Y-94769728D01*
X129612550Y-94730375D01*
X129423217Y-94633904D01*
X129221129Y-94568242D01*
X129011246Y-94535000D01*
X128798754Y-94535000D01*
X128588872Y-94568242D01*
X128588869Y-94568242D01*
X128386782Y-94633904D01*
X128197439Y-94730380D01*
X128143282Y-94769727D01*
X128143282Y-94769728D01*
X128775591Y-95402037D01*
X128712007Y-95419075D01*
X128597993Y-95484901D01*
X128504901Y-95577993D01*
X128439075Y-95692007D01*
X128422037Y-95755591D01*
X127751818Y-95085372D01*
X127718333Y-95024049D01*
X127718330Y-95024036D01*
X127715499Y-95011015D01*
X127715499Y-94987128D01*
X127709091Y-94927517D01*
X127680926Y-94852002D01*
X127658798Y-94792673D01*
X127658793Y-94792664D01*
X127572547Y-94677455D01*
X127572544Y-94677452D01*
X127457335Y-94591206D01*
X127457328Y-94591202D01*
X127322482Y-94540908D01*
X127322483Y-94540908D01*
X127262883Y-94534501D01*
X127262881Y-94534500D01*
X127262873Y-94534500D01*
X127262864Y-94534500D01*
X125467129Y-94534500D01*
X125467123Y-94534501D01*
X125407516Y-94540908D01*
X125272671Y-94591202D01*
X125272664Y-94591206D01*
X125157455Y-94677452D01*
X125157452Y-94677455D01*
X125071206Y-94792664D01*
X125071202Y-94792671D01*
X125020908Y-94927517D01*
X125014501Y-94987116D01*
X125014500Y-94987135D01*
X123825000Y-94987135D01*
X123825000Y-91177135D01*
X125014500Y-91177135D01*
X125014500Y-92972870D01*
X125014501Y-92972876D01*
X125020908Y-93032483D01*
X125071202Y-93167328D01*
X125071206Y-93167335D01*
X125157452Y-93282544D01*
X125157455Y-93282547D01*
X125272664Y-93368793D01*
X125272671Y-93368797D01*
X125407517Y-93419091D01*
X125407516Y-93419091D01*
X125414444Y-93419835D01*
X125467127Y-93425500D01*
X127262872Y-93425499D01*
X127322483Y-93419091D01*
X127457331Y-93368796D01*
X127572546Y-93282546D01*
X127658796Y-93167331D01*
X127709091Y-93032483D01*
X127715500Y-92972873D01*
X127715499Y-92948979D01*
X127718330Y-92935963D01*
X127728940Y-92916525D01*
X127735179Y-92895275D01*
X127751803Y-92874643D01*
X127751808Y-92874636D01*
X127751811Y-92874634D01*
X127751818Y-92874626D01*
X128422037Y-92204408D01*
X128439075Y-92267993D01*
X128504901Y-92382007D01*
X128597993Y-92475099D01*
X128712007Y-92540925D01*
X128775590Y-92557962D01*
X128143282Y-93190269D01*
X128143282Y-93190270D01*
X128197449Y-93229624D01*
X128386782Y-93326095D01*
X128588870Y-93391757D01*
X128798754Y-93425000D01*
X129011246Y-93425000D01*
X129221127Y-93391757D01*
X129221130Y-93391757D01*
X129423217Y-93326095D01*
X129612554Y-93229622D01*
X129666716Y-93190270D01*
X129666717Y-93190270D01*
X129034408Y-92557962D01*
X129097993Y-92540925D01*
X129212007Y-92475099D01*
X129305099Y-92382007D01*
X129370925Y-92267993D01*
X129387962Y-92204408D01*
X130020270Y-92836717D01*
X130020270Y-92836716D01*
X130059622Y-92782555D01*
X130064232Y-92773507D01*
X130112205Y-92722709D01*
X130180025Y-92705912D01*
X130246161Y-92728447D01*
X130285204Y-92773504D01*
X130289949Y-92782817D01*
X130414890Y-92954786D01*
X130565213Y-93105109D01*
X130737179Y-93230048D01*
X130737181Y-93230049D01*
X130737184Y-93230051D01*
X130926588Y-93326557D01*
X131128757Y-93392246D01*
X131338713Y-93425500D01*
X131338714Y-93425500D01*
X131551286Y-93425500D01*
X131551287Y-93425500D01*
X131761243Y-93392246D01*
X131963412Y-93326557D01*
X132152816Y-93230051D01*
X132239138Y-93167335D01*
X132324786Y-93105109D01*
X132324788Y-93105106D01*
X132324792Y-93105104D01*
X132475104Y-92954792D01*
X132475106Y-92954788D01*
X132475109Y-92954786D01*
X132600048Y-92782820D01*
X132600050Y-92782817D01*
X132600051Y-92782816D01*
X132696557Y-92593412D01*
X132762246Y-92391243D01*
X132795500Y-92181287D01*
X132795500Y-91968713D01*
X132762246Y-91758757D01*
X132696557Y-91556588D01*
X132600051Y-91367184D01*
X132600049Y-91367181D01*
X132600048Y-91367179D01*
X132475109Y-91195213D01*
X132324786Y-91044890D01*
X132152820Y-90919951D01*
X131963414Y-90823444D01*
X131963413Y-90823443D01*
X131963412Y-90823443D01*
X131761243Y-90757754D01*
X131761241Y-90757753D01*
X131761240Y-90757753D01*
X131599957Y-90732208D01*
X131551287Y-90724500D01*
X131338713Y-90724500D01*
X131290042Y-90732208D01*
X131128760Y-90757753D01*
X130926585Y-90823444D01*
X130737179Y-90919951D01*
X130565213Y-91044890D01*
X130414890Y-91195213D01*
X130289949Y-91367182D01*
X130285202Y-91376499D01*
X130237227Y-91427293D01*
X130169405Y-91444087D01*
X130103271Y-91421548D01*
X130064234Y-91376495D01*
X130059626Y-91367452D01*
X130020270Y-91313282D01*
X130020269Y-91313282D01*
X129387962Y-91945590D01*
X129370925Y-91882007D01*
X129305099Y-91767993D01*
X129212007Y-91674901D01*
X129097993Y-91609075D01*
X129034409Y-91592037D01*
X129666716Y-90959728D01*
X129612550Y-90920375D01*
X129423217Y-90823904D01*
X129221129Y-90758242D01*
X129011246Y-90725000D01*
X128798754Y-90725000D01*
X128588872Y-90758242D01*
X128588869Y-90758242D01*
X128386782Y-90823904D01*
X128197439Y-90920380D01*
X128143282Y-90959727D01*
X128143282Y-90959728D01*
X128775591Y-91592037D01*
X128712007Y-91609075D01*
X128597993Y-91674901D01*
X128504901Y-91767993D01*
X128439075Y-91882007D01*
X128422037Y-91945591D01*
X127751818Y-91275372D01*
X127718333Y-91214049D01*
X127718330Y-91214036D01*
X127715499Y-91201015D01*
X127715499Y-91177128D01*
X127709091Y-91117517D01*
X127680926Y-91042002D01*
X127658798Y-90982673D01*
X127658793Y-90982664D01*
X127572547Y-90867455D01*
X127572544Y-90867452D01*
X127457335Y-90781206D01*
X127457328Y-90781202D01*
X127322482Y-90730908D01*
X127322483Y-90730908D01*
X127262883Y-90724501D01*
X127262881Y-90724500D01*
X127262873Y-90724500D01*
X127262864Y-90724500D01*
X125467129Y-90724500D01*
X125467123Y-90724501D01*
X125407516Y-90730908D01*
X125272671Y-90781202D01*
X125272664Y-90781206D01*
X125157455Y-90867452D01*
X125157452Y-90867455D01*
X125071206Y-90982664D01*
X125071202Y-90982671D01*
X125020908Y-91117517D01*
X125014501Y-91177116D01*
X125014500Y-91177135D01*
X123825000Y-91177135D01*
X123825000Y-87367135D01*
X125014500Y-87367135D01*
X125014500Y-89162870D01*
X125014501Y-89162876D01*
X125020908Y-89222483D01*
X125071202Y-89357328D01*
X125071206Y-89357335D01*
X125157452Y-89472544D01*
X125157455Y-89472547D01*
X125272664Y-89558793D01*
X125272671Y-89558797D01*
X125407517Y-89609091D01*
X125407516Y-89609091D01*
X125414444Y-89609835D01*
X125467127Y-89615500D01*
X127262872Y-89615499D01*
X127322483Y-89609091D01*
X127457331Y-89558796D01*
X127572546Y-89472546D01*
X127658796Y-89357331D01*
X127709091Y-89222483D01*
X127715500Y-89162873D01*
X127715499Y-89138979D01*
X127718330Y-89125963D01*
X127728940Y-89106525D01*
X127735179Y-89085275D01*
X127751803Y-89064643D01*
X127751808Y-89064636D01*
X127751811Y-89064634D01*
X127751818Y-89064626D01*
X128422037Y-88394408D01*
X128439075Y-88457993D01*
X128504901Y-88572007D01*
X128597993Y-88665099D01*
X128712007Y-88730925D01*
X128775590Y-88747962D01*
X128143282Y-89380269D01*
X128143282Y-89380270D01*
X128197449Y-89419624D01*
X128386782Y-89516095D01*
X128588870Y-89581757D01*
X128798754Y-89615000D01*
X129011246Y-89615000D01*
X129221127Y-89581757D01*
X129221130Y-89581757D01*
X129423217Y-89516095D01*
X129612554Y-89419622D01*
X129666716Y-89380270D01*
X129666717Y-89380270D01*
X129034408Y-88747962D01*
X129097993Y-88730925D01*
X129212007Y-88665099D01*
X129305099Y-88572007D01*
X129370925Y-88457993D01*
X129387962Y-88394408D01*
X130020270Y-89026717D01*
X130020270Y-89026716D01*
X130059622Y-88972555D01*
X130064232Y-88963507D01*
X130112205Y-88912709D01*
X130180025Y-88895912D01*
X130246161Y-88918447D01*
X130285204Y-88963504D01*
X130289949Y-88972817D01*
X130414890Y-89144786D01*
X130565213Y-89295109D01*
X130737179Y-89420048D01*
X130737181Y-89420049D01*
X130737184Y-89420051D01*
X130926588Y-89516557D01*
X131128757Y-89582246D01*
X131338713Y-89615500D01*
X131338714Y-89615500D01*
X131551286Y-89615500D01*
X131551287Y-89615500D01*
X131761243Y-89582246D01*
X131963412Y-89516557D01*
X132152816Y-89420051D01*
X132239138Y-89357335D01*
X132324786Y-89295109D01*
X132324788Y-89295106D01*
X132324792Y-89295104D01*
X132475104Y-89144792D01*
X132475106Y-89144788D01*
X132475109Y-89144786D01*
X132600048Y-88972820D01*
X132600050Y-88972817D01*
X132600051Y-88972816D01*
X132696557Y-88783412D01*
X132762246Y-88581243D01*
X132795500Y-88371287D01*
X132795500Y-88158713D01*
X132762246Y-87948757D01*
X132696557Y-87746588D01*
X132600051Y-87557184D01*
X132600049Y-87557181D01*
X132600048Y-87557179D01*
X132475109Y-87385213D01*
X132324786Y-87234890D01*
X132152820Y-87109951D01*
X131963414Y-87013444D01*
X131963413Y-87013443D01*
X131963412Y-87013443D01*
X131761243Y-86947754D01*
X131761241Y-86947753D01*
X131761240Y-86947753D01*
X131599957Y-86922208D01*
X131551287Y-86914500D01*
X131338713Y-86914500D01*
X131290042Y-86922208D01*
X131128760Y-86947753D01*
X130926585Y-87013444D01*
X130737179Y-87109951D01*
X130565213Y-87234890D01*
X130414890Y-87385213D01*
X130289949Y-87557182D01*
X130285202Y-87566499D01*
X130237227Y-87617293D01*
X130169405Y-87634087D01*
X130103271Y-87611548D01*
X130064234Y-87566495D01*
X130059626Y-87557452D01*
X130020270Y-87503282D01*
X130020269Y-87503282D01*
X129387962Y-88135590D01*
X129370925Y-88072007D01*
X129305099Y-87957993D01*
X129212007Y-87864901D01*
X129097993Y-87799075D01*
X129034409Y-87782037D01*
X129666716Y-87149728D01*
X129612550Y-87110375D01*
X129423217Y-87013904D01*
X129221129Y-86948242D01*
X129011246Y-86915000D01*
X128798754Y-86915000D01*
X128588872Y-86948242D01*
X128588869Y-86948242D01*
X128386782Y-87013904D01*
X128197439Y-87110380D01*
X128143282Y-87149727D01*
X128143282Y-87149728D01*
X128775591Y-87782037D01*
X128712007Y-87799075D01*
X128597993Y-87864901D01*
X128504901Y-87957993D01*
X128439075Y-88072007D01*
X128422037Y-88135591D01*
X127751818Y-87465372D01*
X127718333Y-87404049D01*
X127718330Y-87404036D01*
X127715499Y-87391015D01*
X127715499Y-87367128D01*
X127709091Y-87307517D01*
X127680926Y-87232002D01*
X127658798Y-87172673D01*
X127658793Y-87172664D01*
X127572547Y-87057455D01*
X127572544Y-87057452D01*
X127457335Y-86971206D01*
X127457328Y-86971202D01*
X127322482Y-86920908D01*
X127322483Y-86920908D01*
X127262883Y-86914501D01*
X127262881Y-86914500D01*
X127262873Y-86914500D01*
X127262864Y-86914500D01*
X125467129Y-86914500D01*
X125467123Y-86914501D01*
X125407516Y-86920908D01*
X125272671Y-86971202D01*
X125272664Y-86971206D01*
X125157455Y-87057452D01*
X125157452Y-87057455D01*
X125071206Y-87172664D01*
X125071202Y-87172671D01*
X125020908Y-87307517D01*
X125014501Y-87367116D01*
X125014500Y-87367135D01*
X123825000Y-87367135D01*
X123825000Y-83944000D01*
X123844685Y-83876961D01*
X123897489Y-83831206D01*
X123949000Y-83820000D01*
X142751000Y-83820000D01*
X142818039Y-83839685D01*
G37*
%TD.AperFunction*%
%TD*%
%TA.AperFunction,Conductor*%
%TO.N,+6VB*%
G36*
X177743039Y-85109685D02*
G01*
X177788794Y-85162489D01*
X177800000Y-85214000D01*
X177800000Y-111636000D01*
X177780315Y-111703039D01*
X177727511Y-111748794D01*
X177676000Y-111760000D01*
X161414000Y-111760000D01*
X161346961Y-111740315D01*
X161301206Y-111687511D01*
X161290000Y-111636000D01*
X161290000Y-109113713D01*
X168194500Y-109113713D01*
X168194500Y-109326286D01*
X168227753Y-109536239D01*
X168293444Y-109738414D01*
X168389951Y-109927820D01*
X168514890Y-110099786D01*
X168665213Y-110250109D01*
X168837179Y-110375048D01*
X168837181Y-110375049D01*
X168837184Y-110375051D01*
X169026588Y-110471557D01*
X169228757Y-110537246D01*
X169438713Y-110570500D01*
X169438714Y-110570500D01*
X169651286Y-110570500D01*
X169651287Y-110570500D01*
X169861243Y-110537246D01*
X170063412Y-110471557D01*
X170252816Y-110375051D01*
X170339138Y-110312335D01*
X170424786Y-110250109D01*
X170424788Y-110250106D01*
X170424792Y-110250104D01*
X170575104Y-110099792D01*
X170575106Y-110099788D01*
X170575109Y-110099786D01*
X170642515Y-110007007D01*
X170700051Y-109927816D01*
X170704793Y-109918508D01*
X170752763Y-109867711D01*
X170820583Y-109850911D01*
X170886719Y-109873445D01*
X170925763Y-109918500D01*
X170930373Y-109927547D01*
X170969728Y-109981716D01*
X171602037Y-109349408D01*
X171619075Y-109412993D01*
X171684901Y-109527007D01*
X171777993Y-109620099D01*
X171892007Y-109685925D01*
X171955590Y-109702962D01*
X171323282Y-110335269D01*
X171323282Y-110335270D01*
X171377449Y-110374624D01*
X171566782Y-110471095D01*
X171768870Y-110536757D01*
X171978754Y-110570000D01*
X172191246Y-110570000D01*
X172401127Y-110536757D01*
X172401130Y-110536757D01*
X172603217Y-110471095D01*
X172792554Y-110374622D01*
X172846716Y-110335270D01*
X172846717Y-110335270D01*
X172214408Y-109702962D01*
X172277993Y-109685925D01*
X172392007Y-109620099D01*
X172485099Y-109527007D01*
X172550925Y-109412993D01*
X172567962Y-109349408D01*
X173238181Y-110019628D01*
X173271666Y-110080951D01*
X173274500Y-110107300D01*
X173274500Y-110117865D01*
X173274501Y-110117876D01*
X173280908Y-110177483D01*
X173331202Y-110312328D01*
X173331206Y-110312335D01*
X173417452Y-110427544D01*
X173417455Y-110427547D01*
X173532664Y-110513793D01*
X173532671Y-110513797D01*
X173667517Y-110564091D01*
X173667516Y-110564091D01*
X173674444Y-110564835D01*
X173727127Y-110570500D01*
X175522872Y-110570499D01*
X175582483Y-110564091D01*
X175717331Y-110513796D01*
X175832546Y-110427546D01*
X175918796Y-110312331D01*
X175969091Y-110177483D01*
X175975500Y-110117873D01*
X175975499Y-108322128D01*
X175969091Y-108262517D01*
X175918796Y-108127669D01*
X175918795Y-108127668D01*
X175918793Y-108127664D01*
X175832547Y-108012455D01*
X175832544Y-108012452D01*
X175717335Y-107926206D01*
X175717328Y-107926202D01*
X175582482Y-107875908D01*
X175582483Y-107875908D01*
X175522883Y-107869501D01*
X175522881Y-107869500D01*
X175522873Y-107869500D01*
X175522864Y-107869500D01*
X173727129Y-107869500D01*
X173727123Y-107869501D01*
X173667516Y-107875908D01*
X173532671Y-107926202D01*
X173532664Y-107926206D01*
X173417455Y-108012452D01*
X173417452Y-108012455D01*
X173331206Y-108127664D01*
X173331202Y-108127671D01*
X173280908Y-108262517D01*
X173274501Y-108322116D01*
X173274501Y-108322123D01*
X173274500Y-108322135D01*
X173274500Y-108332690D01*
X173254815Y-108399729D01*
X173238181Y-108420371D01*
X172567962Y-109090590D01*
X172550925Y-109027007D01*
X172485099Y-108912993D01*
X172392007Y-108819901D01*
X172277993Y-108754075D01*
X172214409Y-108737037D01*
X172846716Y-108104728D01*
X172792550Y-108065375D01*
X172603217Y-107968904D01*
X172401129Y-107903242D01*
X172191246Y-107870000D01*
X171978754Y-107870000D01*
X171768872Y-107903242D01*
X171768869Y-107903242D01*
X171566782Y-107968904D01*
X171377439Y-108065380D01*
X171323282Y-108104727D01*
X171323282Y-108104728D01*
X171955591Y-108737037D01*
X171892007Y-108754075D01*
X171777993Y-108819901D01*
X171684901Y-108912993D01*
X171619075Y-109027007D01*
X171602037Y-109090591D01*
X170969728Y-108458282D01*
X170969727Y-108458282D01*
X170930380Y-108512440D01*
X170930376Y-108512446D01*
X170925760Y-108521505D01*
X170877781Y-108572297D01*
X170809959Y-108589087D01*
X170743826Y-108566543D01*
X170704794Y-108521493D01*
X170700051Y-108512184D01*
X170700049Y-108512181D01*
X170700048Y-108512179D01*
X170575109Y-108340213D01*
X170424786Y-108189890D01*
X170252820Y-108064951D01*
X170063414Y-107968444D01*
X170063413Y-107968443D01*
X170063412Y-107968443D01*
X169861243Y-107902754D01*
X169861241Y-107902753D01*
X169861240Y-107902753D01*
X169699957Y-107877208D01*
X169651287Y-107869500D01*
X169438713Y-107869500D01*
X169390042Y-107877208D01*
X169228760Y-107902753D01*
X169026585Y-107968444D01*
X168837179Y-108064951D01*
X168665213Y-108189890D01*
X168514890Y-108340213D01*
X168389951Y-108512179D01*
X168293444Y-108701585D01*
X168227753Y-108903760D01*
X168194500Y-109113713D01*
X161290000Y-109113713D01*
X161290000Y-105288713D01*
X168194500Y-105288713D01*
X168194500Y-105501286D01*
X168227753Y-105711239D01*
X168293444Y-105913414D01*
X168389951Y-106102820D01*
X168514890Y-106274786D01*
X168665213Y-106425109D01*
X168837179Y-106550048D01*
X168837181Y-106550049D01*
X168837184Y-106550051D01*
X169026588Y-106646557D01*
X169228757Y-106712246D01*
X169438713Y-106745500D01*
X169438714Y-106745500D01*
X169651286Y-106745500D01*
X169651287Y-106745500D01*
X169861243Y-106712246D01*
X170063412Y-106646557D01*
X170252816Y-106550051D01*
X170339138Y-106487335D01*
X170424786Y-106425109D01*
X170424788Y-106425106D01*
X170424792Y-106425104D01*
X170575104Y-106274792D01*
X170575106Y-106274788D01*
X170575109Y-106274786D01*
X170642515Y-106182007D01*
X170700051Y-106102816D01*
X170704793Y-106093508D01*
X170752763Y-106042711D01*
X170820583Y-106025911D01*
X170886719Y-106048445D01*
X170925763Y-106093500D01*
X170930373Y-106102547D01*
X170969728Y-106156716D01*
X171602037Y-105524408D01*
X171619075Y-105587993D01*
X171684901Y-105702007D01*
X171777993Y-105795099D01*
X171892007Y-105860925D01*
X171955590Y-105877962D01*
X171323282Y-106510269D01*
X171323282Y-106510270D01*
X171377449Y-106549624D01*
X171566782Y-106646095D01*
X171768870Y-106711757D01*
X171978754Y-106745000D01*
X172191246Y-106745000D01*
X172401127Y-106711757D01*
X172401130Y-106711757D01*
X172603217Y-106646095D01*
X172792554Y-106549622D01*
X172846716Y-106510270D01*
X172846717Y-106510270D01*
X172214408Y-105877962D01*
X172277993Y-105860925D01*
X172392007Y-105795099D01*
X172485099Y-105702007D01*
X172550925Y-105587993D01*
X172567962Y-105524408D01*
X173238181Y-106194628D01*
X173271666Y-106255951D01*
X173274500Y-106282300D01*
X173274500Y-106292865D01*
X173274501Y-106292876D01*
X173280908Y-106352483D01*
X173331202Y-106487328D01*
X173331206Y-106487335D01*
X173417452Y-106602544D01*
X173417455Y-106602547D01*
X173532664Y-106688793D01*
X173532671Y-106688797D01*
X173667517Y-106739091D01*
X173667516Y-106739091D01*
X173674444Y-106739835D01*
X173727127Y-106745500D01*
X175522872Y-106745499D01*
X175582483Y-106739091D01*
X175717331Y-106688796D01*
X175832546Y-106602546D01*
X175918796Y-106487331D01*
X175969091Y-106352483D01*
X175975500Y-106292873D01*
X175975499Y-104497128D01*
X175969091Y-104437517D01*
X175918796Y-104302669D01*
X175918795Y-104302668D01*
X175918793Y-104302664D01*
X175832547Y-104187455D01*
X175832544Y-104187452D01*
X175717335Y-104101206D01*
X175717328Y-104101202D01*
X175582482Y-104050908D01*
X175582483Y-104050908D01*
X175522883Y-104044501D01*
X175522881Y-104044500D01*
X175522873Y-104044500D01*
X175522864Y-104044500D01*
X173727129Y-104044500D01*
X173727123Y-104044501D01*
X173667516Y-104050908D01*
X173532671Y-104101202D01*
X173532664Y-104101206D01*
X173417455Y-104187452D01*
X173417452Y-104187455D01*
X173331206Y-104302664D01*
X173331202Y-104302671D01*
X173280908Y-104437517D01*
X173274501Y-104497116D01*
X173274501Y-104497123D01*
X173274500Y-104497135D01*
X173274500Y-104507690D01*
X173254815Y-104574729D01*
X173238181Y-104595371D01*
X172567962Y-105265590D01*
X172550925Y-105202007D01*
X172485099Y-105087993D01*
X172392007Y-104994901D01*
X172277993Y-104929075D01*
X172214409Y-104912037D01*
X172846716Y-104279728D01*
X172792550Y-104240375D01*
X172603217Y-104143904D01*
X172401129Y-104078242D01*
X172191246Y-104045000D01*
X171978754Y-104045000D01*
X171768872Y-104078242D01*
X171768869Y-104078242D01*
X171566782Y-104143904D01*
X171377439Y-104240380D01*
X171323282Y-104279727D01*
X171323282Y-104279728D01*
X171955591Y-104912037D01*
X171892007Y-104929075D01*
X171777993Y-104994901D01*
X171684901Y-105087993D01*
X171619075Y-105202007D01*
X171602037Y-105265591D01*
X170969728Y-104633282D01*
X170969727Y-104633282D01*
X170930380Y-104687440D01*
X170930376Y-104687446D01*
X170925760Y-104696505D01*
X170877781Y-104747297D01*
X170809959Y-104764087D01*
X170743826Y-104741543D01*
X170704794Y-104696493D01*
X170700051Y-104687184D01*
X170700049Y-104687181D01*
X170700048Y-104687179D01*
X170575109Y-104515213D01*
X170424786Y-104364890D01*
X170252820Y-104239951D01*
X170063414Y-104143444D01*
X170063413Y-104143443D01*
X170063412Y-104143443D01*
X169861243Y-104077754D01*
X169861241Y-104077753D01*
X169861240Y-104077753D01*
X169699957Y-104052208D01*
X169651287Y-104044500D01*
X169438713Y-104044500D01*
X169390042Y-104052208D01*
X169228760Y-104077753D01*
X169026585Y-104143444D01*
X168837179Y-104239951D01*
X168665213Y-104364890D01*
X168514890Y-104515213D01*
X168389951Y-104687179D01*
X168293444Y-104876585D01*
X168227753Y-105078760D01*
X168194500Y-105288713D01*
X161290000Y-105288713D01*
X161290000Y-101618647D01*
X161290159Y-101617583D01*
X161290010Y-101617048D01*
X161295483Y-101582181D01*
X161322704Y-101493713D01*
X168194500Y-101493713D01*
X168194500Y-101706286D01*
X168227753Y-101916239D01*
X168293444Y-102118414D01*
X168389951Y-102307820D01*
X168514890Y-102479786D01*
X168665213Y-102630109D01*
X168837179Y-102755048D01*
X168837181Y-102755049D01*
X168837184Y-102755051D01*
X169026588Y-102851557D01*
X169228757Y-102917246D01*
X169438713Y-102950500D01*
X169438714Y-102950500D01*
X169651286Y-102950500D01*
X169651287Y-102950500D01*
X169861243Y-102917246D01*
X170063412Y-102851557D01*
X170252816Y-102755051D01*
X170339138Y-102692335D01*
X170424786Y-102630109D01*
X170424788Y-102630106D01*
X170424792Y-102630104D01*
X170575104Y-102479792D01*
X170575106Y-102479788D01*
X170575109Y-102479786D01*
X170642515Y-102387007D01*
X170700051Y-102307816D01*
X170704793Y-102298508D01*
X170752763Y-102247711D01*
X170820583Y-102230911D01*
X170886719Y-102253445D01*
X170925763Y-102298500D01*
X170930373Y-102307547D01*
X170969728Y-102361716D01*
X171602037Y-101729408D01*
X171619075Y-101792993D01*
X171684901Y-101907007D01*
X171777993Y-102000099D01*
X171892007Y-102065925D01*
X171955590Y-102082962D01*
X171323282Y-102715269D01*
X171323282Y-102715270D01*
X171377449Y-102754624D01*
X171566782Y-102851095D01*
X171768870Y-102916757D01*
X171978754Y-102950000D01*
X172191246Y-102950000D01*
X172401127Y-102916757D01*
X172401130Y-102916757D01*
X172603217Y-102851095D01*
X172792554Y-102754622D01*
X172846716Y-102715270D01*
X172846717Y-102715270D01*
X172214408Y-102082962D01*
X172277993Y-102065925D01*
X172392007Y-102000099D01*
X172485099Y-101907007D01*
X172550925Y-101792993D01*
X172567962Y-101729408D01*
X173238181Y-102399628D01*
X173271666Y-102460951D01*
X173274500Y-102487300D01*
X173274500Y-102497865D01*
X173274501Y-102497876D01*
X173280908Y-102557483D01*
X173331202Y-102692328D01*
X173331206Y-102692335D01*
X173417452Y-102807544D01*
X173417455Y-102807547D01*
X173532664Y-102893793D01*
X173532671Y-102893797D01*
X173667517Y-102944091D01*
X173667516Y-102944091D01*
X173674444Y-102944835D01*
X173727127Y-102950500D01*
X175522872Y-102950499D01*
X175582483Y-102944091D01*
X175717331Y-102893796D01*
X175832546Y-102807546D01*
X175918796Y-102692331D01*
X175969091Y-102557483D01*
X175975500Y-102497873D01*
X175975499Y-100702128D01*
X175969091Y-100642517D01*
X175918796Y-100507669D01*
X175918795Y-100507668D01*
X175918793Y-100507664D01*
X175832547Y-100392455D01*
X175832544Y-100392452D01*
X175717335Y-100306206D01*
X175717328Y-100306202D01*
X175582482Y-100255908D01*
X175582483Y-100255908D01*
X175522883Y-100249501D01*
X175522881Y-100249500D01*
X175522873Y-100249500D01*
X175522864Y-100249500D01*
X173727129Y-100249500D01*
X173727123Y-100249501D01*
X173667516Y-100255908D01*
X173532671Y-100306202D01*
X173532664Y-100306206D01*
X173417455Y-100392452D01*
X173417452Y-100392455D01*
X173331206Y-100507664D01*
X173331202Y-100507671D01*
X173280908Y-100642517D01*
X173274501Y-100702116D01*
X173274501Y-100702123D01*
X173274500Y-100702135D01*
X173274500Y-100712690D01*
X173254815Y-100779729D01*
X173238181Y-100800371D01*
X172567962Y-101470590D01*
X172550925Y-101407007D01*
X172485099Y-101292993D01*
X172392007Y-101199901D01*
X172277993Y-101134075D01*
X172214409Y-101117037D01*
X172846716Y-100484728D01*
X172792550Y-100445375D01*
X172603217Y-100348904D01*
X172401129Y-100283242D01*
X172191246Y-100250000D01*
X171978754Y-100250000D01*
X171768872Y-100283242D01*
X171768869Y-100283242D01*
X171566782Y-100348904D01*
X171377439Y-100445380D01*
X171323282Y-100484727D01*
X171323282Y-100484728D01*
X171955591Y-101117037D01*
X171892007Y-101134075D01*
X171777993Y-101199901D01*
X171684901Y-101292993D01*
X171619075Y-101407007D01*
X171602037Y-101470591D01*
X170969728Y-100838282D01*
X170969727Y-100838282D01*
X170930380Y-100892440D01*
X170930376Y-100892446D01*
X170925760Y-100901505D01*
X170877781Y-100952297D01*
X170809959Y-100969087D01*
X170743826Y-100946543D01*
X170704794Y-100901493D01*
X170700051Y-100892184D01*
X170700049Y-100892181D01*
X170700048Y-100892179D01*
X170575109Y-100720213D01*
X170424786Y-100569890D01*
X170252820Y-100444951D01*
X170063414Y-100348444D01*
X170063413Y-100348443D01*
X170063412Y-100348443D01*
X169861243Y-100282754D01*
X169861241Y-100282753D01*
X169861240Y-100282753D01*
X169699957Y-100257208D01*
X169651287Y-100249500D01*
X169438713Y-100249500D01*
X169390042Y-100257208D01*
X169228760Y-100282753D01*
X169026585Y-100348444D01*
X168837179Y-100444951D01*
X168665213Y-100569890D01*
X168514890Y-100720213D01*
X168389951Y-100892179D01*
X168293444Y-101081585D01*
X168227753Y-101283760D01*
X168194500Y-101493713D01*
X161322704Y-101493713D01*
X161335423Y-101452375D01*
X161335423Y-101452374D01*
X161387305Y-101283760D01*
X163081166Y-95778713D01*
X168194500Y-95778713D01*
X168194500Y-95991286D01*
X168227753Y-96201239D01*
X168293444Y-96403414D01*
X168389951Y-96592820D01*
X168514890Y-96764786D01*
X168665213Y-96915109D01*
X168837179Y-97040048D01*
X168837181Y-97040049D01*
X168837184Y-97040051D01*
X169026588Y-97136557D01*
X169228757Y-97202246D01*
X169438713Y-97235500D01*
X169438714Y-97235500D01*
X169651286Y-97235500D01*
X169651287Y-97235500D01*
X169861243Y-97202246D01*
X170063412Y-97136557D01*
X170252816Y-97040051D01*
X170339138Y-96977335D01*
X170424786Y-96915109D01*
X170424788Y-96915106D01*
X170424792Y-96915104D01*
X170575104Y-96764792D01*
X170575106Y-96764788D01*
X170575109Y-96764786D01*
X170642515Y-96672007D01*
X170700051Y-96592816D01*
X170704793Y-96583508D01*
X170752763Y-96532711D01*
X170820583Y-96515911D01*
X170886719Y-96538445D01*
X170925763Y-96583500D01*
X170930373Y-96592547D01*
X170969728Y-96646716D01*
X171602037Y-96014408D01*
X171619075Y-96077993D01*
X171684901Y-96192007D01*
X171777993Y-96285099D01*
X171892007Y-96350925D01*
X171955590Y-96367962D01*
X171323282Y-97000269D01*
X171323282Y-97000270D01*
X171377449Y-97039624D01*
X171566782Y-97136095D01*
X171768870Y-97201757D01*
X171978754Y-97235000D01*
X172191246Y-97235000D01*
X172401127Y-97201757D01*
X172401130Y-97201757D01*
X172603217Y-97136095D01*
X172792554Y-97039622D01*
X172846716Y-97000270D01*
X172846717Y-97000270D01*
X172214408Y-96367962D01*
X172277993Y-96350925D01*
X172392007Y-96285099D01*
X172485099Y-96192007D01*
X172550925Y-96077993D01*
X172567962Y-96014408D01*
X173238181Y-96684628D01*
X173271666Y-96745951D01*
X173274500Y-96772300D01*
X173274500Y-96782865D01*
X173274501Y-96782876D01*
X173280908Y-96842483D01*
X173331202Y-96977328D01*
X173331206Y-96977335D01*
X173417452Y-97092544D01*
X173417455Y-97092547D01*
X173532664Y-97178793D01*
X173532671Y-97178797D01*
X173667517Y-97229091D01*
X173667516Y-97229091D01*
X173674444Y-97229835D01*
X173727127Y-97235500D01*
X175522872Y-97235499D01*
X175582483Y-97229091D01*
X175717331Y-97178796D01*
X175832546Y-97092546D01*
X175918796Y-96977331D01*
X175969091Y-96842483D01*
X175975500Y-96782873D01*
X175975499Y-94987128D01*
X175969091Y-94927517D01*
X175918796Y-94792669D01*
X175918795Y-94792668D01*
X175918793Y-94792664D01*
X175832547Y-94677455D01*
X175832544Y-94677452D01*
X175717335Y-94591206D01*
X175717328Y-94591202D01*
X175582482Y-94540908D01*
X175582483Y-94540908D01*
X175522883Y-94534501D01*
X175522881Y-94534500D01*
X175522873Y-94534500D01*
X175522864Y-94534500D01*
X173727129Y-94534500D01*
X173727123Y-94534501D01*
X173667516Y-94540908D01*
X173532671Y-94591202D01*
X173532664Y-94591206D01*
X173417455Y-94677452D01*
X173417452Y-94677455D01*
X173331206Y-94792664D01*
X173331202Y-94792671D01*
X173280908Y-94927517D01*
X173274501Y-94987116D01*
X173274501Y-94987123D01*
X173274500Y-94987135D01*
X173274500Y-94997690D01*
X173254815Y-95064729D01*
X173238181Y-95085371D01*
X172567962Y-95755590D01*
X172550925Y-95692007D01*
X172485099Y-95577993D01*
X172392007Y-95484901D01*
X172277993Y-95419075D01*
X172214409Y-95402037D01*
X172846716Y-94769728D01*
X172792550Y-94730375D01*
X172603217Y-94633904D01*
X172401129Y-94568242D01*
X172191246Y-94535000D01*
X171978754Y-94535000D01*
X171768872Y-94568242D01*
X171768869Y-94568242D01*
X171566782Y-94633904D01*
X171377439Y-94730380D01*
X171323282Y-94769727D01*
X171323282Y-94769728D01*
X171955591Y-95402037D01*
X171892007Y-95419075D01*
X171777993Y-95484901D01*
X171684901Y-95577993D01*
X171619075Y-95692007D01*
X171602037Y-95755591D01*
X170969728Y-95123282D01*
X170969727Y-95123282D01*
X170930380Y-95177440D01*
X170930376Y-95177446D01*
X170925760Y-95186505D01*
X170877781Y-95237297D01*
X170809959Y-95254087D01*
X170743826Y-95231543D01*
X170704794Y-95186493D01*
X170700051Y-95177184D01*
X170700049Y-95177181D01*
X170700048Y-95177179D01*
X170575109Y-95005213D01*
X170424786Y-94854890D01*
X170252820Y-94729951D01*
X170063414Y-94633444D01*
X170063413Y-94633443D01*
X170063412Y-94633443D01*
X169861243Y-94567754D01*
X169861241Y-94567753D01*
X169861240Y-94567753D01*
X169699957Y-94542208D01*
X169651287Y-94534500D01*
X169438713Y-94534500D01*
X169390042Y-94542208D01*
X169228760Y-94567753D01*
X169026585Y-94633444D01*
X168837179Y-94729951D01*
X168665213Y-94854890D01*
X168514890Y-95005213D01*
X168389951Y-95177179D01*
X168293444Y-95366585D01*
X168227753Y-95568760D01*
X168194500Y-95778713D01*
X163081166Y-95778713D01*
X163266171Y-95177446D01*
X164258088Y-91953713D01*
X168194500Y-91953713D01*
X168194500Y-92166286D01*
X168227753Y-92376239D01*
X168293444Y-92578414D01*
X168389951Y-92767820D01*
X168514890Y-92939786D01*
X168665213Y-93090109D01*
X168837179Y-93215048D01*
X168837181Y-93215049D01*
X168837184Y-93215051D01*
X169026588Y-93311557D01*
X169228757Y-93377246D01*
X169438713Y-93410500D01*
X169438714Y-93410500D01*
X169651286Y-93410500D01*
X169651287Y-93410500D01*
X169861243Y-93377246D01*
X170063412Y-93311557D01*
X170252816Y-93215051D01*
X170339138Y-93152335D01*
X170424786Y-93090109D01*
X170424788Y-93090106D01*
X170424792Y-93090104D01*
X170575104Y-92939792D01*
X170575106Y-92939788D01*
X170575109Y-92939786D01*
X170642515Y-92847007D01*
X170700051Y-92767816D01*
X170704793Y-92758508D01*
X170752763Y-92707711D01*
X170820583Y-92690911D01*
X170886719Y-92713445D01*
X170925763Y-92758500D01*
X170930373Y-92767547D01*
X170969728Y-92821716D01*
X171602037Y-92189408D01*
X171619075Y-92252993D01*
X171684901Y-92367007D01*
X171777993Y-92460099D01*
X171892007Y-92525925D01*
X171955590Y-92542962D01*
X171323282Y-93175269D01*
X171323282Y-93175270D01*
X171377449Y-93214624D01*
X171566782Y-93311095D01*
X171768870Y-93376757D01*
X171978754Y-93410000D01*
X172191246Y-93410000D01*
X172401127Y-93376757D01*
X172401130Y-93376757D01*
X172603217Y-93311095D01*
X172792554Y-93214622D01*
X172846716Y-93175270D01*
X172846717Y-93175270D01*
X172214408Y-92542962D01*
X172277993Y-92525925D01*
X172392007Y-92460099D01*
X172485099Y-92367007D01*
X172550925Y-92252993D01*
X172567962Y-92189408D01*
X173238181Y-92859628D01*
X173271666Y-92920951D01*
X173274500Y-92947300D01*
X173274500Y-92957865D01*
X173274501Y-92957876D01*
X173280908Y-93017483D01*
X173331202Y-93152328D01*
X173331206Y-93152335D01*
X173417452Y-93267544D01*
X173417455Y-93267547D01*
X173532664Y-93353793D01*
X173532671Y-93353797D01*
X173667517Y-93404091D01*
X173667516Y-93404091D01*
X173674444Y-93404835D01*
X173727127Y-93410500D01*
X175522872Y-93410499D01*
X175582483Y-93404091D01*
X175717331Y-93353796D01*
X175832546Y-93267546D01*
X175918796Y-93152331D01*
X175969091Y-93017483D01*
X175975500Y-92957873D01*
X175975499Y-91162128D01*
X175969091Y-91102517D01*
X175918796Y-90967669D01*
X175918795Y-90967668D01*
X175918793Y-90967664D01*
X175832547Y-90852455D01*
X175832544Y-90852452D01*
X175717335Y-90766206D01*
X175717328Y-90766202D01*
X175582482Y-90715908D01*
X175582483Y-90715908D01*
X175522883Y-90709501D01*
X175522881Y-90709500D01*
X175522873Y-90709500D01*
X175522864Y-90709500D01*
X173727129Y-90709500D01*
X173727123Y-90709501D01*
X173667516Y-90715908D01*
X173532671Y-90766202D01*
X173532664Y-90766206D01*
X173417455Y-90852452D01*
X173417452Y-90852455D01*
X173331206Y-90967664D01*
X173331202Y-90967671D01*
X173280908Y-91102517D01*
X173274501Y-91162116D01*
X173274501Y-91162123D01*
X173274500Y-91162135D01*
X173274500Y-91172690D01*
X173254815Y-91239729D01*
X173238181Y-91260371D01*
X172567962Y-91930590D01*
X172550925Y-91867007D01*
X172485099Y-91752993D01*
X172392007Y-91659901D01*
X172277993Y-91594075D01*
X172214409Y-91577037D01*
X172846716Y-90944728D01*
X172792550Y-90905375D01*
X172603217Y-90808904D01*
X172401129Y-90743242D01*
X172191246Y-90710000D01*
X171978754Y-90710000D01*
X171768872Y-90743242D01*
X171768869Y-90743242D01*
X171566782Y-90808904D01*
X171377439Y-90905380D01*
X171323282Y-90944727D01*
X171323282Y-90944728D01*
X171955591Y-91577037D01*
X171892007Y-91594075D01*
X171777993Y-91659901D01*
X171684901Y-91752993D01*
X171619075Y-91867007D01*
X171602037Y-91930591D01*
X170969728Y-91298282D01*
X170969727Y-91298282D01*
X170930380Y-91352440D01*
X170930376Y-91352446D01*
X170925760Y-91361505D01*
X170877781Y-91412297D01*
X170809959Y-91429087D01*
X170743826Y-91406543D01*
X170704794Y-91361493D01*
X170700051Y-91352184D01*
X170700049Y-91352181D01*
X170700048Y-91352179D01*
X170575109Y-91180213D01*
X170424786Y-91029890D01*
X170252820Y-90904951D01*
X170063414Y-90808444D01*
X170063413Y-90808443D01*
X170063412Y-90808443D01*
X169861243Y-90742754D01*
X169861241Y-90742753D01*
X169861240Y-90742753D01*
X169699957Y-90717208D01*
X169651287Y-90709500D01*
X169438713Y-90709500D01*
X169390042Y-90717208D01*
X169228760Y-90742753D01*
X169026585Y-90808444D01*
X168837179Y-90904951D01*
X168665213Y-91029890D01*
X168514890Y-91180213D01*
X168389951Y-91352179D01*
X168293444Y-91541585D01*
X168227753Y-91743760D01*
X168194500Y-91953713D01*
X164258088Y-91953713D01*
X164270808Y-91912374D01*
X164440310Y-91361492D01*
X165425781Y-88158713D01*
X168194500Y-88158713D01*
X168194500Y-88371286D01*
X168227753Y-88581239D01*
X168293444Y-88783414D01*
X168389951Y-88972820D01*
X168514890Y-89144786D01*
X168665213Y-89295109D01*
X168837179Y-89420048D01*
X168837181Y-89420049D01*
X168837184Y-89420051D01*
X169026588Y-89516557D01*
X169228757Y-89582246D01*
X169438713Y-89615500D01*
X169438714Y-89615500D01*
X169651286Y-89615500D01*
X169651287Y-89615500D01*
X169861243Y-89582246D01*
X170063412Y-89516557D01*
X170252816Y-89420051D01*
X170339138Y-89357335D01*
X170424786Y-89295109D01*
X170424788Y-89295106D01*
X170424792Y-89295104D01*
X170575104Y-89144792D01*
X170575106Y-89144788D01*
X170575109Y-89144786D01*
X170642515Y-89052007D01*
X170700051Y-88972816D01*
X170704793Y-88963508D01*
X170752763Y-88912711D01*
X170820583Y-88895911D01*
X170886719Y-88918445D01*
X170925763Y-88963500D01*
X170930373Y-88972547D01*
X170969728Y-89026716D01*
X171602037Y-88394408D01*
X171619075Y-88457993D01*
X171684901Y-88572007D01*
X171777993Y-88665099D01*
X171892007Y-88730925D01*
X171955590Y-88747962D01*
X171323282Y-89380269D01*
X171323282Y-89380270D01*
X171377449Y-89419624D01*
X171566782Y-89516095D01*
X171768870Y-89581757D01*
X171978754Y-89615000D01*
X172191246Y-89615000D01*
X172401127Y-89581757D01*
X172401130Y-89581757D01*
X172603217Y-89516095D01*
X172792554Y-89419622D01*
X172846716Y-89380270D01*
X172846717Y-89380270D01*
X172214408Y-88747962D01*
X172277993Y-88730925D01*
X172392007Y-88665099D01*
X172485099Y-88572007D01*
X172550925Y-88457993D01*
X172567962Y-88394408D01*
X173238181Y-89064628D01*
X173271666Y-89125951D01*
X173274500Y-89152300D01*
X173274500Y-89162865D01*
X173274501Y-89162876D01*
X173280908Y-89222483D01*
X173331202Y-89357328D01*
X173331206Y-89357335D01*
X173417452Y-89472544D01*
X173417455Y-89472547D01*
X173532664Y-89558793D01*
X173532671Y-89558797D01*
X173667517Y-89609091D01*
X173667516Y-89609091D01*
X173674444Y-89609835D01*
X173727127Y-89615500D01*
X175522872Y-89615499D01*
X175582483Y-89609091D01*
X175717331Y-89558796D01*
X175832546Y-89472546D01*
X175918796Y-89357331D01*
X175969091Y-89222483D01*
X175975500Y-89162873D01*
X175975499Y-87367128D01*
X175969091Y-87307517D01*
X175918796Y-87172669D01*
X175918795Y-87172668D01*
X175918793Y-87172664D01*
X175832547Y-87057455D01*
X175832544Y-87057452D01*
X175717335Y-86971206D01*
X175717328Y-86971202D01*
X175582482Y-86920908D01*
X175582483Y-86920908D01*
X175522883Y-86914501D01*
X175522881Y-86914500D01*
X175522873Y-86914500D01*
X175522864Y-86914500D01*
X173727129Y-86914500D01*
X173727123Y-86914501D01*
X173667516Y-86920908D01*
X173532671Y-86971202D01*
X173532664Y-86971206D01*
X173417455Y-87057452D01*
X173417452Y-87057455D01*
X173331206Y-87172664D01*
X173331202Y-87172671D01*
X173280908Y-87307517D01*
X173274501Y-87367116D01*
X173274501Y-87367123D01*
X173274500Y-87367135D01*
X173274500Y-87377690D01*
X173254815Y-87444729D01*
X173238181Y-87465371D01*
X172567962Y-88135590D01*
X172550925Y-88072007D01*
X172485099Y-87957993D01*
X172392007Y-87864901D01*
X172277993Y-87799075D01*
X172214409Y-87782037D01*
X172846716Y-87149728D01*
X172792550Y-87110375D01*
X172603217Y-87013904D01*
X172401129Y-86948242D01*
X172191246Y-86915000D01*
X171978754Y-86915000D01*
X171768872Y-86948242D01*
X171768869Y-86948242D01*
X171566782Y-87013904D01*
X171377439Y-87110380D01*
X171323282Y-87149727D01*
X171323282Y-87149728D01*
X171955591Y-87782037D01*
X171892007Y-87799075D01*
X171777993Y-87864901D01*
X171684901Y-87957993D01*
X171619075Y-88072007D01*
X171602037Y-88135591D01*
X170969728Y-87503282D01*
X170969727Y-87503282D01*
X170930380Y-87557440D01*
X170930376Y-87557446D01*
X170925760Y-87566505D01*
X170877781Y-87617297D01*
X170809959Y-87634087D01*
X170743826Y-87611543D01*
X170704794Y-87566493D01*
X170700051Y-87557184D01*
X170700049Y-87557181D01*
X170700048Y-87557179D01*
X170575109Y-87385213D01*
X170424786Y-87234890D01*
X170252820Y-87109951D01*
X170063414Y-87013444D01*
X170063413Y-87013443D01*
X170063412Y-87013443D01*
X169861243Y-86947754D01*
X169861241Y-86947753D01*
X169861240Y-86947753D01*
X169699957Y-86922208D01*
X169651287Y-86914500D01*
X169438713Y-86914500D01*
X169390042Y-86922208D01*
X169228760Y-86947753D01*
X169026585Y-87013444D01*
X168837179Y-87109951D01*
X168665213Y-87234890D01*
X168514890Y-87385213D01*
X168389951Y-87557179D01*
X168293444Y-87746585D01*
X168227753Y-87948760D01*
X168194500Y-88158713D01*
X165425781Y-88158713D01*
X166343067Y-85177533D01*
X166381597Y-85119247D01*
X166445522Y-85091045D01*
X166461584Y-85090000D01*
X177676000Y-85090000D01*
X177743039Y-85109685D01*
G37*
%TD.AperFunction*%
%TD*%
%TA.AperFunction,Conductor*%
%TO.N,+6VA*%
G36*
X133990890Y-111642192D02*
G01*
X133967882Y-111708165D01*
X133912860Y-111751226D01*
X133867045Y-111760000D01*
X123949000Y-111760000D01*
X123881961Y-111740315D01*
X123836206Y-111687511D01*
X123825000Y-111636000D01*
X123825000Y-108322135D01*
X125014500Y-108322135D01*
X125014500Y-110117870D01*
X125014501Y-110117876D01*
X125020908Y-110177483D01*
X125071202Y-110312328D01*
X125071206Y-110312335D01*
X125157452Y-110427544D01*
X125157455Y-110427547D01*
X125272664Y-110513793D01*
X125272671Y-110513797D01*
X125407517Y-110564091D01*
X125407516Y-110564091D01*
X125414444Y-110564835D01*
X125467127Y-110570500D01*
X127262872Y-110570499D01*
X127322483Y-110564091D01*
X127457331Y-110513796D01*
X127572546Y-110427546D01*
X127658796Y-110312331D01*
X127709091Y-110177483D01*
X127715500Y-110117873D01*
X127715499Y-110093979D01*
X127718330Y-110080963D01*
X127728940Y-110061525D01*
X127735179Y-110040275D01*
X127751803Y-110019643D01*
X127751808Y-110019636D01*
X127751811Y-110019634D01*
X127751818Y-110019626D01*
X128422037Y-109349408D01*
X128439075Y-109412993D01*
X128504901Y-109527007D01*
X128597993Y-109620099D01*
X128712007Y-109685925D01*
X128775590Y-109702962D01*
X128143282Y-110335269D01*
X128143282Y-110335270D01*
X128197449Y-110374624D01*
X128386782Y-110471095D01*
X128588870Y-110536757D01*
X128798754Y-110570000D01*
X129011246Y-110570000D01*
X129221127Y-110536757D01*
X129221130Y-110536757D01*
X129423217Y-110471095D01*
X129612554Y-110374622D01*
X129666716Y-110335270D01*
X129666717Y-110335270D01*
X129034408Y-109702962D01*
X129097993Y-109685925D01*
X129212007Y-109620099D01*
X129305099Y-109527007D01*
X129370925Y-109412993D01*
X129387962Y-109349408D01*
X130020270Y-109981717D01*
X130020270Y-109981716D01*
X130059622Y-109927555D01*
X130064232Y-109918507D01*
X130112205Y-109867709D01*
X130180025Y-109850912D01*
X130246161Y-109873447D01*
X130285204Y-109918504D01*
X130289949Y-109927817D01*
X130414890Y-110099786D01*
X130565213Y-110250109D01*
X130737179Y-110375048D01*
X130737181Y-110375049D01*
X130737184Y-110375051D01*
X130926588Y-110471557D01*
X131128757Y-110537246D01*
X131338713Y-110570500D01*
X131338714Y-110570500D01*
X131551286Y-110570500D01*
X131551287Y-110570500D01*
X131761243Y-110537246D01*
X131963412Y-110471557D01*
X132152816Y-110375051D01*
X132239138Y-110312335D01*
X132324786Y-110250109D01*
X132324788Y-110250106D01*
X132324792Y-110250104D01*
X132475104Y-110099792D01*
X132475106Y-110099788D01*
X132475109Y-110099786D01*
X132600048Y-109927820D01*
X132600050Y-109927817D01*
X132600051Y-109927816D01*
X132696557Y-109738412D01*
X132762246Y-109536243D01*
X132795500Y-109326287D01*
X132795500Y-109113713D01*
X132762246Y-108903757D01*
X132696557Y-108701588D01*
X132600051Y-108512184D01*
X132600049Y-108512181D01*
X132600048Y-108512179D01*
X132475109Y-108340213D01*
X132324786Y-108189890D01*
X132152820Y-108064951D01*
X131963414Y-107968444D01*
X131963413Y-107968443D01*
X131963412Y-107968443D01*
X131761243Y-107902754D01*
X131761241Y-107902753D01*
X131761240Y-107902753D01*
X131599957Y-107877208D01*
X131551287Y-107869500D01*
X131338713Y-107869500D01*
X131290042Y-107877208D01*
X131128760Y-107902753D01*
X130926585Y-107968444D01*
X130737179Y-108064951D01*
X130565213Y-108189890D01*
X130414890Y-108340213D01*
X130289949Y-108512182D01*
X130285202Y-108521499D01*
X130237227Y-108572293D01*
X130169405Y-108589087D01*
X130103271Y-108566548D01*
X130064234Y-108521495D01*
X130059626Y-108512452D01*
X130020270Y-108458282D01*
X130020269Y-108458282D01*
X129387962Y-109090590D01*
X129370925Y-109027007D01*
X129305099Y-108912993D01*
X129212007Y-108819901D01*
X129097993Y-108754075D01*
X129034409Y-108737037D01*
X129666716Y-108104728D01*
X129612550Y-108065375D01*
X129423217Y-107968904D01*
X129221129Y-107903242D01*
X129011246Y-107870000D01*
X128798754Y-107870000D01*
X128588872Y-107903242D01*
X128588869Y-107903242D01*
X128386782Y-107968904D01*
X128197439Y-108065380D01*
X128143282Y-108104727D01*
X128143282Y-108104728D01*
X128775591Y-108737037D01*
X128712007Y-108754075D01*
X128597993Y-108819901D01*
X128504901Y-108912993D01*
X128439075Y-109027007D01*
X128422037Y-109090591D01*
X127751818Y-108420372D01*
X127718333Y-108359049D01*
X127718330Y-108359036D01*
X127715499Y-108346015D01*
X127715499Y-108322128D01*
X127709091Y-108262517D01*
X127680926Y-108187002D01*
X127658798Y-108127673D01*
X127658793Y-108127664D01*
X127572547Y-108012455D01*
X127572544Y-108012452D01*
X127457335Y-107926206D01*
X127457328Y-107926202D01*
X127322482Y-107875908D01*
X127322483Y-107875908D01*
X127262883Y-107869501D01*
X127262881Y-107869500D01*
X127262873Y-107869500D01*
X127262864Y-107869500D01*
X125467129Y-107869500D01*
X125467123Y-107869501D01*
X125407516Y-107875908D01*
X125272671Y-107926202D01*
X125272664Y-107926206D01*
X125157455Y-108012452D01*
X125157452Y-108012455D01*
X125071206Y-108127664D01*
X125071202Y-108127671D01*
X125020908Y-108262517D01*
X125014501Y-108322116D01*
X125014500Y-108322135D01*
X123825000Y-108322135D01*
X123825000Y-104512135D01*
X125014500Y-104512135D01*
X125014500Y-106307870D01*
X125014501Y-106307876D01*
X125020908Y-106367483D01*
X125071202Y-106502328D01*
X125071206Y-106502335D01*
X125157452Y-106617544D01*
X125157455Y-106617547D01*
X125272664Y-106703793D01*
X125272671Y-106703797D01*
X125407517Y-106754091D01*
X125407516Y-106754091D01*
X125414444Y-106754835D01*
X125467127Y-106760500D01*
X127262872Y-106760499D01*
X127322483Y-106754091D01*
X127457331Y-106703796D01*
X127572546Y-106617546D01*
X127658796Y-106502331D01*
X127709091Y-106367483D01*
X127715500Y-106307873D01*
X127715499Y-106283979D01*
X127718330Y-106270963D01*
X127728940Y-106251525D01*
X127735179Y-106230275D01*
X127751803Y-106209643D01*
X127751808Y-106209636D01*
X127751811Y-106209634D01*
X127751818Y-106209626D01*
X128422037Y-105539408D01*
X128439075Y-105602993D01*
X128504901Y-105717007D01*
X128597993Y-105810099D01*
X128712007Y-105875925D01*
X128775590Y-105892962D01*
X128143282Y-106525269D01*
X128143282Y-106525270D01*
X128197449Y-106564624D01*
X128386782Y-106661095D01*
X128588870Y-106726757D01*
X128798754Y-106760000D01*
X129011246Y-106760000D01*
X129221127Y-106726757D01*
X129221130Y-106726757D01*
X129423217Y-106661095D01*
X129612554Y-106564622D01*
X129666716Y-106525270D01*
X129666717Y-106525270D01*
X129034408Y-105892962D01*
X129097993Y-105875925D01*
X129212007Y-105810099D01*
X129305099Y-105717007D01*
X129370925Y-105602993D01*
X129387962Y-105539408D01*
X130020270Y-106171717D01*
X130020270Y-106171716D01*
X130059622Y-106117555D01*
X130064232Y-106108507D01*
X130112205Y-106057709D01*
X130180025Y-106040912D01*
X130246161Y-106063447D01*
X130285204Y-106108504D01*
X130289949Y-106117817D01*
X130414890Y-106289786D01*
X130565213Y-106440109D01*
X130737179Y-106565048D01*
X130737181Y-106565049D01*
X130737184Y-106565051D01*
X130926588Y-106661557D01*
X131128757Y-106727246D01*
X131338713Y-106760500D01*
X131338714Y-106760500D01*
X131551286Y-106760500D01*
X131551287Y-106760500D01*
X131761243Y-106727246D01*
X131963412Y-106661557D01*
X132152816Y-106565051D01*
X132239138Y-106502335D01*
X132324786Y-106440109D01*
X132324788Y-106440106D01*
X132324792Y-106440104D01*
X132475104Y-106289792D01*
X132475106Y-106289788D01*
X132475109Y-106289786D01*
X132600048Y-106117820D01*
X132600050Y-106117817D01*
X132600051Y-106117816D01*
X132696557Y-105928412D01*
X132762246Y-105726243D01*
X132795500Y-105516287D01*
X132795500Y-105303713D01*
X132762246Y-105093757D01*
X132696557Y-104891588D01*
X132600051Y-104702184D01*
X132600049Y-104702181D01*
X132600048Y-104702179D01*
X132475109Y-104530213D01*
X132324786Y-104379890D01*
X132152820Y-104254951D01*
X131963414Y-104158444D01*
X131963413Y-104158443D01*
X131963412Y-104158443D01*
X131761243Y-104092754D01*
X131761241Y-104092753D01*
X131761240Y-104092753D01*
X131599957Y-104067208D01*
X131551287Y-104059500D01*
X131338713Y-104059500D01*
X131290042Y-104067208D01*
X131128760Y-104092753D01*
X130926585Y-104158444D01*
X130737179Y-104254951D01*
X130565213Y-104379890D01*
X130414890Y-104530213D01*
X130289949Y-104702182D01*
X130285202Y-104711499D01*
X130237227Y-104762293D01*
X130169405Y-104779087D01*
X130103271Y-104756548D01*
X130064234Y-104711495D01*
X130059626Y-104702452D01*
X130020270Y-104648282D01*
X130020269Y-104648282D01*
X129387962Y-105280590D01*
X129370925Y-105217007D01*
X129305099Y-105102993D01*
X129212007Y-105009901D01*
X129097993Y-104944075D01*
X129034409Y-104927037D01*
X129666716Y-104294728D01*
X129612550Y-104255375D01*
X129423217Y-104158904D01*
X129221129Y-104093242D01*
X129011246Y-104060000D01*
X128798754Y-104060000D01*
X128588872Y-104093242D01*
X128588869Y-104093242D01*
X128386782Y-104158904D01*
X128197439Y-104255380D01*
X128143282Y-104294727D01*
X128143282Y-104294728D01*
X128775591Y-104927037D01*
X128712007Y-104944075D01*
X128597993Y-105009901D01*
X128504901Y-105102993D01*
X128439075Y-105217007D01*
X128422037Y-105280591D01*
X127751818Y-104610372D01*
X127718333Y-104549049D01*
X127718330Y-104549036D01*
X127715499Y-104536015D01*
X127715499Y-104512128D01*
X127709091Y-104452517D01*
X127680926Y-104377002D01*
X127658798Y-104317673D01*
X127658793Y-104317664D01*
X127572547Y-104202455D01*
X127572544Y-104202452D01*
X127457335Y-104116206D01*
X127457328Y-104116202D01*
X127322482Y-104065908D01*
X127322483Y-104065908D01*
X127262883Y-104059501D01*
X127262881Y-104059500D01*
X127262873Y-104059500D01*
X127262864Y-104059500D01*
X125467129Y-104059500D01*
X125467123Y-104059501D01*
X125407516Y-104065908D01*
X125272671Y-104116202D01*
X125272664Y-104116206D01*
X125157455Y-104202452D01*
X125157452Y-104202455D01*
X125071206Y-104317664D01*
X125071202Y-104317671D01*
X125020908Y-104452517D01*
X125014501Y-104512116D01*
X125014500Y-104512135D01*
X123825000Y-104512135D01*
X123825000Y-100702135D01*
X125014500Y-100702135D01*
X125014500Y-102497870D01*
X125014501Y-102497876D01*
X125020908Y-102557483D01*
X125071202Y-102692328D01*
X125071206Y-102692335D01*
X125157452Y-102807544D01*
X125157455Y-102807547D01*
X125272664Y-102893793D01*
X125272671Y-102893797D01*
X125407517Y-102944091D01*
X125407516Y-102944091D01*
X125414444Y-102944835D01*
X125467127Y-102950500D01*
X127262872Y-102950499D01*
X127322483Y-102944091D01*
X127457331Y-102893796D01*
X127572546Y-102807546D01*
X127658796Y-102692331D01*
X127709091Y-102557483D01*
X127715500Y-102497873D01*
X127715499Y-102473979D01*
X127718330Y-102460963D01*
X127728940Y-102441525D01*
X127735179Y-102420275D01*
X127751803Y-102399643D01*
X127751808Y-102399636D01*
X127751811Y-102399634D01*
X127751818Y-102399626D01*
X128422037Y-101729408D01*
X128439075Y-101792993D01*
X128504901Y-101907007D01*
X128597993Y-102000099D01*
X128712007Y-102065925D01*
X128775590Y-102082962D01*
X128143282Y-102715269D01*
X128143282Y-102715270D01*
X128197449Y-102754624D01*
X128386782Y-102851095D01*
X128588870Y-102916757D01*
X128798754Y-102950000D01*
X129011246Y-102950000D01*
X129221127Y-102916757D01*
X129221130Y-102916757D01*
X129423217Y-102851095D01*
X129612554Y-102754622D01*
X129666716Y-102715270D01*
X129666717Y-102715270D01*
X129034408Y-102082962D01*
X129097993Y-102065925D01*
X129212007Y-102000099D01*
X129305099Y-101907007D01*
X129370925Y-101792993D01*
X129387962Y-101729408D01*
X130020270Y-102361717D01*
X130020270Y-102361716D01*
X130059622Y-102307555D01*
X130064232Y-102298507D01*
X130112205Y-102247709D01*
X130180025Y-102230912D01*
X130246161Y-102253447D01*
X130285204Y-102298504D01*
X130289949Y-102307817D01*
X130414890Y-102479786D01*
X130565213Y-102630109D01*
X130737179Y-102755048D01*
X130737181Y-102755049D01*
X130737184Y-102755051D01*
X130926588Y-102851557D01*
X131128757Y-102917246D01*
X131338713Y-102950500D01*
X131338714Y-102950500D01*
X131551286Y-102950500D01*
X131551287Y-102950500D01*
X131761243Y-102917246D01*
X131963412Y-102851557D01*
X132152816Y-102755051D01*
X132239138Y-102692335D01*
X132324786Y-102630109D01*
X132324788Y-102630106D01*
X132324792Y-102630104D01*
X132475104Y-102479792D01*
X132475106Y-102479788D01*
X132475109Y-102479786D01*
X132600048Y-102307820D01*
X132600050Y-102307817D01*
X132600051Y-102307816D01*
X132696557Y-102118412D01*
X132762246Y-101916243D01*
X132795500Y-101706287D01*
X132795500Y-101493713D01*
X132762246Y-101283757D01*
X132696557Y-101081588D01*
X132600051Y-100892184D01*
X132600049Y-100892181D01*
X132600048Y-100892179D01*
X132475109Y-100720213D01*
X132324786Y-100569890D01*
X132152820Y-100444951D01*
X131963414Y-100348444D01*
X131963413Y-100348443D01*
X131963412Y-100348443D01*
X131761243Y-100282754D01*
X131761241Y-100282753D01*
X131761240Y-100282753D01*
X131599957Y-100257208D01*
X131551287Y-100249500D01*
X131338713Y-100249500D01*
X131290042Y-100257208D01*
X131128760Y-100282753D01*
X130926585Y-100348444D01*
X130737179Y-100444951D01*
X130565213Y-100569890D01*
X130414890Y-100720213D01*
X130289949Y-100892182D01*
X130285202Y-100901499D01*
X130237227Y-100952293D01*
X130169405Y-100969087D01*
X130103271Y-100946548D01*
X130064234Y-100901495D01*
X130059626Y-100892452D01*
X130020270Y-100838282D01*
X130020269Y-100838282D01*
X129387962Y-101470590D01*
X129370925Y-101407007D01*
X129305099Y-101292993D01*
X129212007Y-101199901D01*
X129097993Y-101134075D01*
X129034409Y-101117037D01*
X129666716Y-100484728D01*
X129612550Y-100445375D01*
X129423217Y-100348904D01*
X129221129Y-100283242D01*
X129011246Y-100250000D01*
X128798754Y-100250000D01*
X128588872Y-100283242D01*
X128588869Y-100283242D01*
X128386782Y-100348904D01*
X128197439Y-100445380D01*
X128143282Y-100484727D01*
X128143282Y-100484728D01*
X128775591Y-101117037D01*
X128712007Y-101134075D01*
X128597993Y-101199901D01*
X128504901Y-101292993D01*
X128439075Y-101407007D01*
X128422037Y-101470591D01*
X127751818Y-100800372D01*
X127718333Y-100739049D01*
X127718330Y-100739036D01*
X127715499Y-100726015D01*
X127715499Y-100702128D01*
X127709091Y-100642517D01*
X127680926Y-100567002D01*
X127658798Y-100507673D01*
X127658793Y-100507664D01*
X127572547Y-100392455D01*
X127572544Y-100392452D01*
X127457335Y-100306206D01*
X127457328Y-100306202D01*
X127322482Y-100255908D01*
X127322483Y-100255908D01*
X127262883Y-100249501D01*
X127262881Y-100249500D01*
X127262873Y-100249500D01*
X127262864Y-100249500D01*
X125467129Y-100249500D01*
X125467123Y-100249501D01*
X125407516Y-100255908D01*
X125272671Y-100306202D01*
X125272664Y-100306206D01*
X125157455Y-100392452D01*
X125157452Y-100392455D01*
X125071206Y-100507664D01*
X125071202Y-100507671D01*
X125020908Y-100642517D01*
X125014501Y-100702116D01*
X125014500Y-100702135D01*
X123825000Y-100702135D01*
X123825000Y-99060000D01*
X134619999Y-99060000D01*
X133990890Y-111642192D01*
G37*
%TD.AperFunction*%
%TD*%
%TA.AperFunction,Conductor*%
%TO.N,+BATT*%
G36*
X163721777Y-87014685D02*
G01*
X163767532Y-87067489D01*
X163777476Y-87136647D01*
X163771669Y-87160270D01*
X160040184Y-97732811D01*
X159999309Y-97789477D01*
X159962465Y-97809178D01*
X154305000Y-99694999D01*
X154304999Y-99695000D01*
X149879509Y-122454668D01*
X149847391Y-122516718D01*
X149786824Y-122551553D01*
X149757789Y-122555000D01*
X141675207Y-122555000D01*
X141608168Y-122535315D01*
X141568878Y-122494797D01*
X135907671Y-113059451D01*
X135890000Y-112995654D01*
X135890000Y-101089000D01*
X135909685Y-101021961D01*
X135962489Y-100976206D01*
X136014000Y-100965000D01*
X136076000Y-100965000D01*
X136143039Y-100984685D01*
X136188794Y-101037489D01*
X136200000Y-101089000D01*
X136200000Y-103632000D01*
X137480865Y-103632000D01*
X137463926Y-103695217D01*
X137425000Y-103990889D01*
X137425000Y-104289111D01*
X137463926Y-104584783D01*
X137480865Y-104648000D01*
X136200000Y-104648000D01*
X136200000Y-107187844D01*
X136206401Y-107247372D01*
X136206403Y-107247379D01*
X136256645Y-107382086D01*
X136256649Y-107382093D01*
X136342809Y-107497187D01*
X136342812Y-107497190D01*
X136457906Y-107583350D01*
X136457913Y-107583354D01*
X136592620Y-107633596D01*
X136592627Y-107633598D01*
X136652155Y-107639999D01*
X136652172Y-107640000D01*
X139099189Y-107640000D01*
X139166228Y-107659685D01*
X139211983Y-107712489D01*
X139221927Y-107781647D01*
X139192902Y-107845203D01*
X139134124Y-107882977D01*
X139123380Y-107885617D01*
X138848427Y-107940308D01*
X138519293Y-108040150D01*
X138201535Y-108171770D01*
X138201530Y-108171772D01*
X137898224Y-108333893D01*
X137898206Y-108333904D01*
X137612248Y-108524975D01*
X137612234Y-108524985D01*
X137346367Y-108743176D01*
X137103176Y-108986367D01*
X136884985Y-109252234D01*
X136884975Y-109252248D01*
X136693904Y-109538206D01*
X136693893Y-109538224D01*
X136531772Y-109841530D01*
X136531770Y-109841535D01*
X136400150Y-110159293D01*
X136300308Y-110488427D01*
X136233210Y-110825750D01*
X136199500Y-111168034D01*
X136199500Y-111511965D01*
X136233210Y-111854249D01*
X136300308Y-112191572D01*
X136400150Y-112520706D01*
X136531770Y-112838464D01*
X136531772Y-112838469D01*
X136693893Y-113141775D01*
X136693904Y-113141793D01*
X136884975Y-113427751D01*
X136884985Y-113427765D01*
X137103176Y-113693632D01*
X137346367Y-113936823D01*
X137346372Y-113936827D01*
X137346373Y-113936828D01*
X137612240Y-114155019D01*
X137898213Y-114346100D01*
X137898222Y-114346105D01*
X137898224Y-114346106D01*
X138201530Y-114508227D01*
X138201532Y-114508227D01*
X138201538Y-114508231D01*
X138519295Y-114639850D01*
X138848422Y-114739690D01*
X139185750Y-114806789D01*
X139528031Y-114840500D01*
X139528034Y-114840500D01*
X139871966Y-114840500D01*
X139871969Y-114840500D01*
X140214250Y-114806789D01*
X140551578Y-114739690D01*
X140880705Y-114639850D01*
X141198462Y-114508231D01*
X141501787Y-114346100D01*
X141787760Y-114155019D01*
X142053627Y-113936828D01*
X142296828Y-113693627D01*
X142515019Y-113427760D01*
X142706100Y-113141787D01*
X142868231Y-112838462D01*
X142999850Y-112520705D01*
X143099690Y-112191578D01*
X143166789Y-111854250D01*
X143200500Y-111511969D01*
X143200500Y-111168031D01*
X143166789Y-110825750D01*
X143099690Y-110488422D01*
X142999850Y-110159295D01*
X142868231Y-109841538D01*
X142706100Y-109538213D01*
X142515019Y-109252240D01*
X142296828Y-108986373D01*
X142296827Y-108986372D01*
X142296823Y-108986367D01*
X142053632Y-108743176D01*
X141787765Y-108524985D01*
X141787764Y-108524984D01*
X141787760Y-108524981D01*
X141501787Y-108333900D01*
X141501782Y-108333897D01*
X141501775Y-108333893D01*
X141198469Y-108171772D01*
X141198464Y-108171770D01*
X140880706Y-108040150D01*
X140551572Y-107940308D01*
X140276620Y-107885617D01*
X140214709Y-107853232D01*
X140180135Y-107792516D01*
X140183874Y-107722747D01*
X140224741Y-107666075D01*
X140289759Y-107640494D01*
X140300811Y-107640000D01*
X142747828Y-107640000D01*
X142747844Y-107639999D01*
X142807372Y-107633598D01*
X142807379Y-107633596D01*
X142942086Y-107583354D01*
X142942093Y-107583350D01*
X143057187Y-107497190D01*
X143057190Y-107497187D01*
X143143350Y-107382093D01*
X143143354Y-107382086D01*
X143193596Y-107247379D01*
X143193598Y-107247372D01*
X143199999Y-107187844D01*
X143200000Y-107187827D01*
X143200000Y-104648000D01*
X141919135Y-104648000D01*
X141936074Y-104584783D01*
X141975000Y-104289111D01*
X141975000Y-103990889D01*
X141936074Y-103695217D01*
X141919135Y-103632000D01*
X143200000Y-103632000D01*
X143200000Y-101089000D01*
X143219685Y-101021961D01*
X143272489Y-100976206D01*
X143324000Y-100965000D01*
X144145000Y-100965000D01*
X144145000Y-87119000D01*
X144164685Y-87051961D01*
X144217489Y-87006206D01*
X144269000Y-86995000D01*
X163654738Y-86995000D01*
X163721777Y-87014685D01*
G37*
%TD.AperFunction*%
%TD*%
%TA.AperFunction,Conductor*%
%TO.N,+6VC*%
G36*
X134594258Y-113049685D02*
G01*
X134640013Y-113102489D01*
X134646178Y-113119007D01*
X137795000Y-123825000D01*
X155575000Y-123825000D01*
X157032246Y-122448713D01*
X168194500Y-122448713D01*
X168194500Y-122661286D01*
X168226947Y-122866153D01*
X168227754Y-122871243D01*
X168288102Y-123056975D01*
X168293444Y-123073414D01*
X168389951Y-123262820D01*
X168514890Y-123434786D01*
X168665213Y-123585109D01*
X168837179Y-123710048D01*
X168837181Y-123710049D01*
X168837184Y-123710051D01*
X169026588Y-123806557D01*
X169228757Y-123872246D01*
X169438713Y-123905500D01*
X169438714Y-123905500D01*
X169651286Y-123905500D01*
X169651287Y-123905500D01*
X169861243Y-123872246D01*
X170063412Y-123806557D01*
X170252816Y-123710051D01*
X170339138Y-123647335D01*
X170424786Y-123585109D01*
X170424788Y-123585106D01*
X170424792Y-123585104D01*
X170575104Y-123434792D01*
X170575106Y-123434788D01*
X170575109Y-123434786D01*
X170660890Y-123316717D01*
X170700051Y-123262816D01*
X170704793Y-123253508D01*
X170752763Y-123202711D01*
X170820583Y-123185911D01*
X170886719Y-123208445D01*
X170925763Y-123253500D01*
X170930373Y-123262547D01*
X170969728Y-123316716D01*
X171602037Y-122684408D01*
X171619075Y-122747993D01*
X171684901Y-122862007D01*
X171777993Y-122955099D01*
X171892007Y-123020925D01*
X171955590Y-123037962D01*
X171323282Y-123670269D01*
X171323282Y-123670270D01*
X171377449Y-123709624D01*
X171566782Y-123806095D01*
X171768870Y-123871757D01*
X171978754Y-123905000D01*
X172191246Y-123905000D01*
X172401127Y-123871757D01*
X172401130Y-123871757D01*
X172603217Y-123806095D01*
X172792554Y-123709622D01*
X172846716Y-123670270D01*
X172846717Y-123670270D01*
X172214408Y-123037962D01*
X172277993Y-123020925D01*
X172392007Y-122955099D01*
X172485099Y-122862007D01*
X172550925Y-122747993D01*
X172567962Y-122684408D01*
X173238181Y-123354628D01*
X173271666Y-123415951D01*
X173274500Y-123442300D01*
X173274500Y-123452865D01*
X173274501Y-123452876D01*
X173280908Y-123512483D01*
X173331202Y-123647328D01*
X173331206Y-123647335D01*
X173417452Y-123762544D01*
X173417455Y-123762547D01*
X173532664Y-123848793D01*
X173532671Y-123848797D01*
X173667517Y-123899091D01*
X173667516Y-123899091D01*
X173674444Y-123899835D01*
X173727127Y-123905500D01*
X175522872Y-123905499D01*
X175582483Y-123899091D01*
X175717331Y-123848796D01*
X175832546Y-123762546D01*
X175918796Y-123647331D01*
X175969091Y-123512483D01*
X175975500Y-123452873D01*
X175975499Y-121657128D01*
X175969091Y-121597517D01*
X175918797Y-121462673D01*
X175918797Y-121462671D01*
X175918793Y-121462664D01*
X175832547Y-121347455D01*
X175832544Y-121347452D01*
X175717335Y-121261206D01*
X175717328Y-121261202D01*
X175582482Y-121210908D01*
X175582483Y-121210908D01*
X175522883Y-121204501D01*
X175522881Y-121204500D01*
X175522873Y-121204500D01*
X175522864Y-121204500D01*
X173727129Y-121204500D01*
X173727123Y-121204501D01*
X173667516Y-121210908D01*
X173532671Y-121261202D01*
X173532664Y-121261206D01*
X173417455Y-121347452D01*
X173417452Y-121347455D01*
X173331206Y-121462664D01*
X173331202Y-121462671D01*
X173280908Y-121597517D01*
X173274501Y-121657116D01*
X173274501Y-121657123D01*
X173274500Y-121657135D01*
X173274500Y-121667690D01*
X173254815Y-121734729D01*
X173238181Y-121755371D01*
X172567962Y-122425590D01*
X172550925Y-122362007D01*
X172485099Y-122247993D01*
X172392007Y-122154901D01*
X172277993Y-122089075D01*
X172214409Y-122072037D01*
X172846716Y-121439728D01*
X172792550Y-121400375D01*
X172603217Y-121303904D01*
X172401129Y-121238242D01*
X172191246Y-121205000D01*
X171978754Y-121205000D01*
X171768872Y-121238242D01*
X171768869Y-121238242D01*
X171566782Y-121303904D01*
X171377439Y-121400380D01*
X171323282Y-121439727D01*
X171323282Y-121439728D01*
X171955591Y-122072037D01*
X171892007Y-122089075D01*
X171777993Y-122154901D01*
X171684901Y-122247993D01*
X171619075Y-122362007D01*
X171602037Y-122425591D01*
X170969728Y-121793282D01*
X170969727Y-121793282D01*
X170930380Y-121847440D01*
X170930376Y-121847446D01*
X170925760Y-121856505D01*
X170877781Y-121907297D01*
X170809959Y-121924087D01*
X170743826Y-121901543D01*
X170704794Y-121856493D01*
X170700051Y-121847184D01*
X170700049Y-121847181D01*
X170700048Y-121847179D01*
X170575109Y-121675213D01*
X170424786Y-121524890D01*
X170252820Y-121399951D01*
X170063414Y-121303444D01*
X170063413Y-121303443D01*
X170063412Y-121303443D01*
X169861243Y-121237754D01*
X169861241Y-121237753D01*
X169861240Y-121237753D01*
X169699957Y-121212208D01*
X169651287Y-121204500D01*
X169438713Y-121204500D01*
X169390042Y-121212208D01*
X169228760Y-121237753D01*
X169026585Y-121303444D01*
X168837179Y-121399951D01*
X168665213Y-121524890D01*
X168514890Y-121675213D01*
X168389951Y-121847179D01*
X168293444Y-122036585D01*
X168227753Y-122238760D01*
X168194500Y-122448713D01*
X157032246Y-122448713D01*
X157254549Y-122238760D01*
X160261938Y-119398447D01*
X161066362Y-118638713D01*
X168194500Y-118638713D01*
X168194500Y-118851286D01*
X168227753Y-119061239D01*
X168293444Y-119263414D01*
X168389951Y-119452820D01*
X168514890Y-119624786D01*
X168665213Y-119775109D01*
X168837179Y-119900048D01*
X168837181Y-119900049D01*
X168837184Y-119900051D01*
X169026588Y-119996557D01*
X169228757Y-120062246D01*
X169438713Y-120095500D01*
X169438714Y-120095500D01*
X169651286Y-120095500D01*
X169651287Y-120095500D01*
X169861243Y-120062246D01*
X170063412Y-119996557D01*
X170252816Y-119900051D01*
X170339138Y-119837335D01*
X170424786Y-119775109D01*
X170424788Y-119775106D01*
X170424792Y-119775104D01*
X170575104Y-119624792D01*
X170575106Y-119624788D01*
X170575109Y-119624786D01*
X170660890Y-119506717D01*
X170700051Y-119452816D01*
X170704793Y-119443508D01*
X170752763Y-119392711D01*
X170820583Y-119375911D01*
X170886719Y-119398445D01*
X170925763Y-119443500D01*
X170930373Y-119452547D01*
X170969728Y-119506716D01*
X171602037Y-118874408D01*
X171619075Y-118937993D01*
X171684901Y-119052007D01*
X171777993Y-119145099D01*
X171892007Y-119210925D01*
X171955590Y-119227962D01*
X171323282Y-119860269D01*
X171323282Y-119860270D01*
X171377449Y-119899624D01*
X171566782Y-119996095D01*
X171768870Y-120061757D01*
X171978754Y-120095000D01*
X172191246Y-120095000D01*
X172401127Y-120061757D01*
X172401130Y-120061757D01*
X172603217Y-119996095D01*
X172792554Y-119899622D01*
X172846716Y-119860270D01*
X172846717Y-119860270D01*
X172214408Y-119227962D01*
X172277993Y-119210925D01*
X172392007Y-119145099D01*
X172485099Y-119052007D01*
X172550925Y-118937993D01*
X172567962Y-118874408D01*
X173238181Y-119544628D01*
X173271666Y-119605951D01*
X173274500Y-119632300D01*
X173274500Y-119642865D01*
X173274501Y-119642876D01*
X173280908Y-119702483D01*
X173331202Y-119837328D01*
X173331206Y-119837335D01*
X173417452Y-119952544D01*
X173417455Y-119952547D01*
X173532664Y-120038793D01*
X173532671Y-120038797D01*
X173667517Y-120089091D01*
X173667516Y-120089091D01*
X173674444Y-120089835D01*
X173727127Y-120095500D01*
X175522872Y-120095499D01*
X175582483Y-120089091D01*
X175717331Y-120038796D01*
X175832546Y-119952546D01*
X175918796Y-119837331D01*
X175969091Y-119702483D01*
X175975500Y-119642873D01*
X175975499Y-117847128D01*
X175969091Y-117787517D01*
X175918797Y-117652673D01*
X175918797Y-117652671D01*
X175918793Y-117652664D01*
X175832547Y-117537455D01*
X175832544Y-117537452D01*
X175717335Y-117451206D01*
X175717328Y-117451202D01*
X175582482Y-117400908D01*
X175582483Y-117400908D01*
X175522883Y-117394501D01*
X175522881Y-117394500D01*
X175522873Y-117394500D01*
X175522864Y-117394500D01*
X173727129Y-117394500D01*
X173727123Y-117394501D01*
X173667516Y-117400908D01*
X173532671Y-117451202D01*
X173532664Y-117451206D01*
X173417455Y-117537452D01*
X173417452Y-117537455D01*
X173331206Y-117652664D01*
X173331202Y-117652671D01*
X173280908Y-117787517D01*
X173274501Y-117847116D01*
X173274501Y-117847123D01*
X173274500Y-117847135D01*
X173274500Y-117857690D01*
X173254815Y-117924729D01*
X173238181Y-117945371D01*
X172567962Y-118615590D01*
X172550925Y-118552007D01*
X172485099Y-118437993D01*
X172392007Y-118344901D01*
X172277993Y-118279075D01*
X172214409Y-118262037D01*
X172846716Y-117629728D01*
X172792550Y-117590375D01*
X172603217Y-117493904D01*
X172401129Y-117428242D01*
X172191246Y-117395000D01*
X171978754Y-117395000D01*
X171768872Y-117428242D01*
X171768869Y-117428242D01*
X171566782Y-117493904D01*
X171377439Y-117590380D01*
X171323282Y-117629727D01*
X171323282Y-117629728D01*
X171955591Y-118262037D01*
X171892007Y-118279075D01*
X171777993Y-118344901D01*
X171684901Y-118437993D01*
X171619075Y-118552007D01*
X171602037Y-118615591D01*
X170969728Y-117983282D01*
X170969727Y-117983282D01*
X170930380Y-118037440D01*
X170930376Y-118037446D01*
X170925760Y-118046505D01*
X170877781Y-118097297D01*
X170809959Y-118114087D01*
X170743826Y-118091543D01*
X170704794Y-118046493D01*
X170700051Y-118037184D01*
X170700049Y-118037181D01*
X170700048Y-118037179D01*
X170575109Y-117865213D01*
X170424786Y-117714890D01*
X170252820Y-117589951D01*
X170063414Y-117493444D01*
X170063413Y-117493443D01*
X170063412Y-117493443D01*
X169861243Y-117427754D01*
X169861241Y-117427753D01*
X169861240Y-117427753D01*
X169699957Y-117402208D01*
X169651287Y-117394500D01*
X169438713Y-117394500D01*
X169390042Y-117402208D01*
X169228760Y-117427753D01*
X169026585Y-117493444D01*
X168837179Y-117589951D01*
X168665213Y-117714890D01*
X168514890Y-117865213D01*
X168389951Y-118037179D01*
X168293444Y-118226585D01*
X168227753Y-118428760D01*
X168194500Y-118638713D01*
X161066362Y-118638713D01*
X165100481Y-114828713D01*
X168194500Y-114828713D01*
X168194500Y-115041286D01*
X168227753Y-115251239D01*
X168293444Y-115453414D01*
X168389951Y-115642820D01*
X168514890Y-115814786D01*
X168665213Y-115965109D01*
X168837179Y-116090048D01*
X168837181Y-116090049D01*
X168837184Y-116090051D01*
X169026588Y-116186557D01*
X169228757Y-116252246D01*
X169438713Y-116285500D01*
X169438714Y-116285500D01*
X169651286Y-116285500D01*
X169651287Y-116285500D01*
X169861243Y-116252246D01*
X170063412Y-116186557D01*
X170252816Y-116090051D01*
X170339138Y-116027335D01*
X170424786Y-115965109D01*
X170424788Y-115965106D01*
X170424792Y-115965104D01*
X170575104Y-115814792D01*
X170575106Y-115814788D01*
X170575109Y-115814786D01*
X170660890Y-115696717D01*
X170700051Y-115642816D01*
X170704793Y-115633508D01*
X170752763Y-115582711D01*
X170820583Y-115565911D01*
X170886719Y-115588445D01*
X170925763Y-115633500D01*
X170930373Y-115642547D01*
X170969728Y-115696716D01*
X171602037Y-115064408D01*
X171619075Y-115127993D01*
X171684901Y-115242007D01*
X171777993Y-115335099D01*
X171892007Y-115400925D01*
X171955590Y-115417962D01*
X171323282Y-116050269D01*
X171323282Y-116050270D01*
X171377449Y-116089624D01*
X171566782Y-116186095D01*
X171768870Y-116251757D01*
X171978754Y-116285000D01*
X172191246Y-116285000D01*
X172401127Y-116251757D01*
X172401130Y-116251757D01*
X172603217Y-116186095D01*
X172792554Y-116089622D01*
X172846716Y-116050270D01*
X172846717Y-116050270D01*
X172214408Y-115417962D01*
X172277993Y-115400925D01*
X172392007Y-115335099D01*
X172485099Y-115242007D01*
X172550925Y-115127993D01*
X172567962Y-115064408D01*
X173238181Y-115734628D01*
X173271666Y-115795951D01*
X173274500Y-115822300D01*
X173274500Y-115832865D01*
X173274501Y-115832876D01*
X173280908Y-115892483D01*
X173331202Y-116027328D01*
X173331206Y-116027335D01*
X173417452Y-116142544D01*
X173417455Y-116142547D01*
X173532664Y-116228793D01*
X173532671Y-116228797D01*
X173667517Y-116279091D01*
X173667516Y-116279091D01*
X173674444Y-116279835D01*
X173727127Y-116285500D01*
X175522872Y-116285499D01*
X175582483Y-116279091D01*
X175717331Y-116228796D01*
X175832546Y-116142546D01*
X175918796Y-116027331D01*
X175969091Y-115892483D01*
X175975500Y-115832873D01*
X175975499Y-114037128D01*
X175969091Y-113977517D01*
X175918797Y-113842673D01*
X175918797Y-113842671D01*
X175918793Y-113842664D01*
X175832547Y-113727455D01*
X175832544Y-113727452D01*
X175717335Y-113641206D01*
X175717328Y-113641202D01*
X175582482Y-113590908D01*
X175582483Y-113590908D01*
X175522883Y-113584501D01*
X175522881Y-113584500D01*
X175522873Y-113584500D01*
X175522864Y-113584500D01*
X173727129Y-113584500D01*
X173727123Y-113584501D01*
X173667516Y-113590908D01*
X173532671Y-113641202D01*
X173532664Y-113641206D01*
X173417455Y-113727452D01*
X173417452Y-113727455D01*
X173331206Y-113842664D01*
X173331202Y-113842671D01*
X173280908Y-113977517D01*
X173274501Y-114037116D01*
X173274501Y-114037123D01*
X173274500Y-114037135D01*
X173274500Y-114047690D01*
X173254815Y-114114729D01*
X173238181Y-114135371D01*
X172567962Y-114805590D01*
X172550925Y-114742007D01*
X172485099Y-114627993D01*
X172392007Y-114534901D01*
X172277993Y-114469075D01*
X172214409Y-114452037D01*
X172846716Y-113819728D01*
X172792550Y-113780375D01*
X172603217Y-113683904D01*
X172401129Y-113618242D01*
X172191246Y-113585000D01*
X171978754Y-113585000D01*
X171768872Y-113618242D01*
X171768869Y-113618242D01*
X171566782Y-113683904D01*
X171377439Y-113780380D01*
X171323282Y-113819727D01*
X171323282Y-113819728D01*
X171955591Y-114452037D01*
X171892007Y-114469075D01*
X171777993Y-114534901D01*
X171684901Y-114627993D01*
X171619075Y-114742007D01*
X171602037Y-114805591D01*
X170969728Y-114173282D01*
X170969727Y-114173282D01*
X170930380Y-114227440D01*
X170930376Y-114227446D01*
X170925760Y-114236505D01*
X170877781Y-114287297D01*
X170809959Y-114304087D01*
X170743826Y-114281543D01*
X170704794Y-114236493D01*
X170700051Y-114227184D01*
X170700049Y-114227181D01*
X170700048Y-114227179D01*
X170575109Y-114055213D01*
X170424786Y-113904890D01*
X170252820Y-113779951D01*
X170063414Y-113683444D01*
X170063413Y-113683443D01*
X170063412Y-113683443D01*
X169861243Y-113617754D01*
X169861241Y-113617753D01*
X169861240Y-113617753D01*
X169699957Y-113592208D01*
X169651287Y-113584500D01*
X169438713Y-113584500D01*
X169390042Y-113592208D01*
X169228760Y-113617753D01*
X169026585Y-113683444D01*
X168837179Y-113779951D01*
X168665213Y-113904890D01*
X168514890Y-114055213D01*
X168389951Y-114227179D01*
X168293444Y-114416585D01*
X168227753Y-114618760D01*
X168194500Y-114828713D01*
X165100481Y-114828713D01*
X165322784Y-114618760D01*
X166969159Y-113063850D01*
X167031413Y-113032130D01*
X167054300Y-113030000D01*
X177676000Y-113030000D01*
X177743039Y-113049685D01*
X177788794Y-113102489D01*
X177800000Y-113154000D01*
X177800000Y-130686000D01*
X177780315Y-130753039D01*
X177727511Y-130798794D01*
X177676000Y-130810000D01*
X161188703Y-130810000D01*
X161121664Y-130790315D01*
X161075909Y-130737511D01*
X161065965Y-130668353D01*
X161068928Y-130653907D01*
X161105548Y-130517238D01*
X161135500Y-130289734D01*
X161135500Y-130060266D01*
X161105548Y-129832762D01*
X161046158Y-129611113D01*
X160958344Y-129399112D01*
X160843611Y-129200388D01*
X160843608Y-129200385D01*
X160843607Y-129200382D01*
X160703918Y-129018338D01*
X160703911Y-129018330D01*
X160541670Y-128856089D01*
X160541661Y-128856081D01*
X160359617Y-128716392D01*
X160160890Y-128601657D01*
X160160876Y-128601650D01*
X159948887Y-128513842D01*
X159727238Y-128454452D01*
X159689215Y-128449446D01*
X159499741Y-128424500D01*
X159499734Y-128424500D01*
X159270266Y-128424500D01*
X159270258Y-128424500D01*
X159053715Y-128453009D01*
X159042762Y-128454452D01*
X158949076Y-128479554D01*
X158821112Y-128513842D01*
X158609123Y-128601650D01*
X158609109Y-128601657D01*
X158410382Y-128716392D01*
X158228338Y-128856081D01*
X158066081Y-129018338D01*
X157926392Y-129200382D01*
X157811657Y-129399109D01*
X157811650Y-129399123D01*
X157723842Y-129611112D01*
X157664453Y-129832759D01*
X157664451Y-129832770D01*
X157634500Y-130060258D01*
X157634500Y-130289741D01*
X157659446Y-130479215D01*
X157664452Y-130517238D01*
X157664453Y-130517240D01*
X157701072Y-130653907D01*
X157699409Y-130723757D01*
X157660246Y-130781619D01*
X157596017Y-130809123D01*
X157581297Y-130810000D01*
X123314000Y-130810000D01*
X123246961Y-130790315D01*
X123201206Y-130737511D01*
X123190000Y-130686000D01*
X123190000Y-121657135D01*
X125014500Y-121657135D01*
X125014500Y-123452870D01*
X125014501Y-123452876D01*
X125020908Y-123512483D01*
X125071202Y-123647328D01*
X125071206Y-123647335D01*
X125157452Y-123762544D01*
X125157455Y-123762547D01*
X125272664Y-123848793D01*
X125272671Y-123848797D01*
X125407517Y-123899091D01*
X125407516Y-123899091D01*
X125414444Y-123899835D01*
X125467127Y-123905500D01*
X127262872Y-123905499D01*
X127322483Y-123899091D01*
X127457331Y-123848796D01*
X127572546Y-123762546D01*
X127658796Y-123647331D01*
X127709091Y-123512483D01*
X127715500Y-123452873D01*
X127715499Y-123428979D01*
X127718330Y-123415963D01*
X127728940Y-123396525D01*
X127735179Y-123375275D01*
X127751803Y-123354643D01*
X127751808Y-123354636D01*
X127751811Y-123354634D01*
X127751818Y-123354626D01*
X128422037Y-122684408D01*
X128439075Y-122747993D01*
X128504901Y-122862007D01*
X128597993Y-122955099D01*
X128712007Y-123020925D01*
X128775590Y-123037962D01*
X128143282Y-123670269D01*
X128143282Y-123670270D01*
X128197449Y-123709624D01*
X128386782Y-123806095D01*
X128588870Y-123871757D01*
X128798754Y-123905000D01*
X129011246Y-123905000D01*
X129221127Y-123871757D01*
X129221130Y-123871757D01*
X129423217Y-123806095D01*
X129612554Y-123709622D01*
X129666716Y-123670270D01*
X129666717Y-123670270D01*
X129034408Y-123037962D01*
X129097993Y-123020925D01*
X129212007Y-122955099D01*
X129305099Y-122862007D01*
X129370925Y-122747993D01*
X129387962Y-122684408D01*
X130020270Y-123316717D01*
X130020270Y-123316716D01*
X130059622Y-123262555D01*
X130064232Y-123253507D01*
X130112205Y-123202709D01*
X130180025Y-123185912D01*
X130246161Y-123208447D01*
X130285204Y-123253504D01*
X130289949Y-123262817D01*
X130414890Y-123434786D01*
X130565213Y-123585109D01*
X130737179Y-123710048D01*
X130737181Y-123710049D01*
X130737184Y-123710051D01*
X130926588Y-123806557D01*
X131128757Y-123872246D01*
X131338713Y-123905500D01*
X131338714Y-123905500D01*
X131551286Y-123905500D01*
X131551287Y-123905500D01*
X131761243Y-123872246D01*
X131963412Y-123806557D01*
X132152816Y-123710051D01*
X132239138Y-123647335D01*
X132324786Y-123585109D01*
X132324788Y-123585106D01*
X132324792Y-123585104D01*
X132475104Y-123434792D01*
X132475106Y-123434788D01*
X132475109Y-123434786D01*
X132600048Y-123262820D01*
X132600047Y-123262820D01*
X132600051Y-123262816D01*
X132696557Y-123073412D01*
X132762246Y-122871243D01*
X132795500Y-122661287D01*
X132795500Y-122448713D01*
X132762246Y-122238757D01*
X132696557Y-122036588D01*
X132600051Y-121847184D01*
X132600049Y-121847181D01*
X132600048Y-121847179D01*
X132475109Y-121675213D01*
X132324786Y-121524890D01*
X132152820Y-121399951D01*
X131963414Y-121303444D01*
X131963413Y-121303443D01*
X131963412Y-121303443D01*
X131761243Y-121237754D01*
X131761241Y-121237753D01*
X131761240Y-121237753D01*
X131599957Y-121212208D01*
X131551287Y-121204500D01*
X131338713Y-121204500D01*
X131290042Y-121212208D01*
X131128760Y-121237753D01*
X130926585Y-121303444D01*
X130737179Y-121399951D01*
X130565213Y-121524890D01*
X130414890Y-121675213D01*
X130289949Y-121847182D01*
X130285202Y-121856499D01*
X130237227Y-121907293D01*
X130169405Y-121924087D01*
X130103271Y-121901548D01*
X130064234Y-121856495D01*
X130059626Y-121847452D01*
X130020270Y-121793282D01*
X130020269Y-121793282D01*
X129387962Y-122425590D01*
X129370925Y-122362007D01*
X129305099Y-122247993D01*
X129212007Y-122154901D01*
X129097993Y-122089075D01*
X129034409Y-122072037D01*
X129666716Y-121439728D01*
X129612550Y-121400375D01*
X129423217Y-121303904D01*
X129221129Y-121238242D01*
X129011246Y-121205000D01*
X128798754Y-121205000D01*
X128588872Y-121238242D01*
X128588869Y-121238242D01*
X128386782Y-121303904D01*
X128197439Y-121400380D01*
X128143282Y-121439727D01*
X128143282Y-121439728D01*
X128775591Y-122072037D01*
X128712007Y-122089075D01*
X128597993Y-122154901D01*
X128504901Y-122247993D01*
X128439075Y-122362007D01*
X128422037Y-122425591D01*
X127751818Y-121755372D01*
X127718333Y-121694049D01*
X127718330Y-121694036D01*
X127715499Y-121681015D01*
X127715499Y-121657128D01*
X127709091Y-121597517D01*
X127680926Y-121522002D01*
X127658798Y-121462673D01*
X127658793Y-121462664D01*
X127572547Y-121347455D01*
X127572544Y-121347452D01*
X127457335Y-121261206D01*
X127457328Y-121261202D01*
X127322482Y-121210908D01*
X127322483Y-121210908D01*
X127262883Y-121204501D01*
X127262881Y-121204500D01*
X127262873Y-121204500D01*
X127262864Y-121204500D01*
X125467129Y-121204500D01*
X125467123Y-121204501D01*
X125407516Y-121210908D01*
X125272671Y-121261202D01*
X125272664Y-121261206D01*
X125157455Y-121347452D01*
X125157452Y-121347455D01*
X125071206Y-121462664D01*
X125071202Y-121462671D01*
X125020908Y-121597517D01*
X125014501Y-121657116D01*
X125014501Y-121657123D01*
X125014500Y-121657135D01*
X123190000Y-121657135D01*
X123190000Y-117847135D01*
X125014500Y-117847135D01*
X125014500Y-119642870D01*
X125014501Y-119642876D01*
X125020908Y-119702483D01*
X125071202Y-119837328D01*
X125071206Y-119837335D01*
X125157452Y-119952544D01*
X125157455Y-119952547D01*
X125272664Y-120038793D01*
X125272671Y-120038797D01*
X125407517Y-120089091D01*
X125407516Y-120089091D01*
X125414444Y-120089835D01*
X125467127Y-120095500D01*
X127262872Y-120095499D01*
X127322483Y-120089091D01*
X127457331Y-120038796D01*
X127572546Y-119952546D01*
X127658796Y-119837331D01*
X127709091Y-119702483D01*
X127715500Y-119642873D01*
X127715499Y-119618979D01*
X127718330Y-119605963D01*
X127728940Y-119586525D01*
X127735179Y-119565275D01*
X127751803Y-119544643D01*
X127751808Y-119544636D01*
X127751811Y-119544634D01*
X127751818Y-119544626D01*
X128422037Y-118874408D01*
X128439075Y-118937993D01*
X128504901Y-119052007D01*
X128597993Y-119145099D01*
X128712007Y-119210925D01*
X128775590Y-119227962D01*
X128143282Y-119860269D01*
X128143282Y-119860270D01*
X128197449Y-119899624D01*
X128386782Y-119996095D01*
X128588870Y-120061757D01*
X128798754Y-120095000D01*
X129011246Y-120095000D01*
X129221127Y-120061757D01*
X129221130Y-120061757D01*
X129423217Y-119996095D01*
X129612554Y-119899622D01*
X129666716Y-119860270D01*
X129666717Y-119860270D01*
X129034408Y-119227962D01*
X129097993Y-119210925D01*
X129212007Y-119145099D01*
X129305099Y-119052007D01*
X129370925Y-118937993D01*
X129387962Y-118874408D01*
X130020270Y-119506717D01*
X130020270Y-119506716D01*
X130059622Y-119452555D01*
X130064232Y-119443507D01*
X130112205Y-119392709D01*
X130180025Y-119375912D01*
X130246161Y-119398447D01*
X130285204Y-119443504D01*
X130289949Y-119452817D01*
X130414890Y-119624786D01*
X130565213Y-119775109D01*
X130737179Y-119900048D01*
X130737181Y-119900049D01*
X130737184Y-119900051D01*
X130926588Y-119996557D01*
X131128757Y-120062246D01*
X131338713Y-120095500D01*
X131338714Y-120095500D01*
X131551286Y-120095500D01*
X131551287Y-120095500D01*
X131761243Y-120062246D01*
X131963412Y-119996557D01*
X132152816Y-119900051D01*
X132239138Y-119837335D01*
X132324786Y-119775109D01*
X132324788Y-119775106D01*
X132324792Y-119775104D01*
X132475104Y-119624792D01*
X132475106Y-119624788D01*
X132475109Y-119624786D01*
X132600048Y-119452820D01*
X132600047Y-119452820D01*
X132600051Y-119452816D01*
X132696557Y-119263412D01*
X132762246Y-119061243D01*
X132795500Y-118851287D01*
X132795500Y-118638713D01*
X132762246Y-118428757D01*
X132696557Y-118226588D01*
X132600051Y-118037184D01*
X132600049Y-118037181D01*
X132600048Y-118037179D01*
X132475109Y-117865213D01*
X132324786Y-117714890D01*
X132152820Y-117589951D01*
X131963414Y-117493444D01*
X131963413Y-117493443D01*
X131963412Y-117493443D01*
X131761243Y-117427754D01*
X131761241Y-117427753D01*
X131761240Y-117427753D01*
X131599957Y-117402208D01*
X131551287Y-117394500D01*
X131338713Y-117394500D01*
X131290042Y-117402208D01*
X131128760Y-117427753D01*
X130926585Y-117493444D01*
X130737179Y-117589951D01*
X130565213Y-117714890D01*
X130414890Y-117865213D01*
X130289949Y-118037182D01*
X130285202Y-118046499D01*
X130237227Y-118097293D01*
X130169405Y-118114087D01*
X130103271Y-118091548D01*
X130064234Y-118046495D01*
X130059626Y-118037452D01*
X130020270Y-117983282D01*
X130020269Y-117983282D01*
X129387962Y-118615590D01*
X129370925Y-118552007D01*
X129305099Y-118437993D01*
X129212007Y-118344901D01*
X129097993Y-118279075D01*
X129034409Y-118262037D01*
X129666716Y-117629728D01*
X129612550Y-117590375D01*
X129423217Y-117493904D01*
X129221129Y-117428242D01*
X129011246Y-117395000D01*
X128798754Y-117395000D01*
X128588872Y-117428242D01*
X128588869Y-117428242D01*
X128386782Y-117493904D01*
X128197439Y-117590380D01*
X128143282Y-117629727D01*
X128143282Y-117629728D01*
X128775591Y-118262037D01*
X128712007Y-118279075D01*
X128597993Y-118344901D01*
X128504901Y-118437993D01*
X128439075Y-118552007D01*
X128422037Y-118615591D01*
X127751818Y-117945372D01*
X127718333Y-117884049D01*
X127718330Y-117884036D01*
X127715499Y-117871015D01*
X127715499Y-117847128D01*
X127709091Y-117787517D01*
X127680926Y-117712002D01*
X127658798Y-117652673D01*
X127658793Y-117652664D01*
X127572547Y-117537455D01*
X127572544Y-117537452D01*
X127457335Y-117451206D01*
X127457328Y-117451202D01*
X127322482Y-117400908D01*
X127322483Y-117400908D01*
X127262883Y-117394501D01*
X127262881Y-117394500D01*
X127262873Y-117394500D01*
X127262864Y-117394500D01*
X125467129Y-117394500D01*
X125467123Y-117394501D01*
X125407516Y-117400908D01*
X125272671Y-117451202D01*
X125272664Y-117451206D01*
X125157455Y-117537452D01*
X125157452Y-117537455D01*
X125071206Y-117652664D01*
X125071202Y-117652671D01*
X125020908Y-117787517D01*
X125014501Y-117847116D01*
X125014501Y-117847123D01*
X125014500Y-117847135D01*
X123190000Y-117847135D01*
X123190000Y-114037135D01*
X125014500Y-114037135D01*
X125014500Y-115832870D01*
X125014501Y-115832876D01*
X125020908Y-115892483D01*
X125071202Y-116027328D01*
X125071206Y-116027335D01*
X125157452Y-116142544D01*
X125157455Y-116142547D01*
X125272664Y-116228793D01*
X125272671Y-116228797D01*
X125407517Y-116279091D01*
X125407516Y-116279091D01*
X125414444Y-116279835D01*
X125467127Y-116285500D01*
X127262872Y-116285499D01*
X127322483Y-116279091D01*
X127457331Y-116228796D01*
X127572546Y-116142546D01*
X127658796Y-116027331D01*
X127709091Y-115892483D01*
X127715500Y-115832873D01*
X127715499Y-115808979D01*
X127718330Y-115795963D01*
X127728940Y-115776525D01*
X127735179Y-115755275D01*
X127751803Y-115734643D01*
X127751808Y-115734636D01*
X127751811Y-115734634D01*
X127751818Y-115734626D01*
X128422037Y-115064408D01*
X128439075Y-115127993D01*
X128504901Y-115242007D01*
X128597993Y-115335099D01*
X128712007Y-115400925D01*
X128775590Y-115417962D01*
X128143282Y-116050269D01*
X128143282Y-116050270D01*
X128197449Y-116089624D01*
X128386782Y-116186095D01*
X128588870Y-116251757D01*
X128798754Y-116285000D01*
X129011246Y-116285000D01*
X129221127Y-116251757D01*
X129221130Y-116251757D01*
X129423217Y-116186095D01*
X129612554Y-116089622D01*
X129666716Y-116050270D01*
X129666717Y-116050270D01*
X129034408Y-115417962D01*
X129097993Y-115400925D01*
X129212007Y-115335099D01*
X129305099Y-115242007D01*
X129370925Y-115127993D01*
X129387962Y-115064408D01*
X130020270Y-115696717D01*
X130020270Y-115696716D01*
X130059622Y-115642555D01*
X130064232Y-115633507D01*
X130112205Y-115582709D01*
X130180025Y-115565912D01*
X130246161Y-115588447D01*
X130285204Y-115633504D01*
X130289949Y-115642817D01*
X130414890Y-115814786D01*
X130565213Y-115965109D01*
X130737179Y-116090048D01*
X130737181Y-116090049D01*
X130737184Y-116090051D01*
X130926588Y-116186557D01*
X131128757Y-116252246D01*
X131338713Y-116285500D01*
X131338714Y-116285500D01*
X131551286Y-116285500D01*
X131551287Y-116285500D01*
X131761243Y-116252246D01*
X131963412Y-116186557D01*
X132152816Y-116090051D01*
X132239138Y-116027335D01*
X132324786Y-115965109D01*
X132324788Y-115965106D01*
X132324792Y-115965104D01*
X132475104Y-115814792D01*
X132475106Y-115814788D01*
X132475109Y-115814786D01*
X132600048Y-115642820D01*
X132600047Y-115642820D01*
X132600051Y-115642816D01*
X132696557Y-115453412D01*
X132762246Y-115251243D01*
X132795500Y-115041287D01*
X132795500Y-114828713D01*
X132762246Y-114618757D01*
X132696557Y-114416588D01*
X132600051Y-114227184D01*
X132600049Y-114227181D01*
X132600048Y-114227179D01*
X132475109Y-114055213D01*
X132324786Y-113904890D01*
X132152820Y-113779951D01*
X131963414Y-113683444D01*
X131963413Y-113683443D01*
X131963412Y-113683443D01*
X131761243Y-113617754D01*
X131761241Y-113617753D01*
X131761240Y-113617753D01*
X131599957Y-113592208D01*
X131551287Y-113584500D01*
X131338713Y-113584500D01*
X131290042Y-113592208D01*
X131128760Y-113617753D01*
X130926585Y-113683444D01*
X130737179Y-113779951D01*
X130565213Y-113904890D01*
X130414890Y-114055213D01*
X130289949Y-114227182D01*
X130285202Y-114236499D01*
X130237227Y-114287293D01*
X130169405Y-114304087D01*
X130103271Y-114281548D01*
X130064234Y-114236495D01*
X130059626Y-114227452D01*
X130020270Y-114173282D01*
X130020269Y-114173282D01*
X129387962Y-114805590D01*
X129370925Y-114742007D01*
X129305099Y-114627993D01*
X129212007Y-114534901D01*
X129097993Y-114469075D01*
X129034409Y-114452037D01*
X129666716Y-113819728D01*
X129612550Y-113780375D01*
X129423217Y-113683904D01*
X129221129Y-113618242D01*
X129011246Y-113585000D01*
X128798754Y-113585000D01*
X128588872Y-113618242D01*
X128588869Y-113618242D01*
X128386782Y-113683904D01*
X128197439Y-113780380D01*
X128143282Y-113819727D01*
X128143282Y-113819728D01*
X128775591Y-114452037D01*
X128712007Y-114469075D01*
X128597993Y-114534901D01*
X128504901Y-114627993D01*
X128439075Y-114742007D01*
X128422037Y-114805591D01*
X127751818Y-114135372D01*
X127718333Y-114074049D01*
X127718330Y-114074036D01*
X127715499Y-114061015D01*
X127715499Y-114037128D01*
X127709091Y-113977517D01*
X127680926Y-113902002D01*
X127658798Y-113842673D01*
X127658793Y-113842664D01*
X127572547Y-113727455D01*
X127572544Y-113727452D01*
X127457335Y-113641206D01*
X127457328Y-113641202D01*
X127322482Y-113590908D01*
X127322483Y-113590908D01*
X127262883Y-113584501D01*
X127262881Y-113584500D01*
X127262873Y-113584500D01*
X127262864Y-113584500D01*
X125467129Y-113584500D01*
X125467123Y-113584501D01*
X125407516Y-113590908D01*
X125272671Y-113641202D01*
X125272664Y-113641206D01*
X125157455Y-113727452D01*
X125157452Y-113727455D01*
X125071206Y-113842664D01*
X125071202Y-113842671D01*
X125020908Y-113977517D01*
X125014501Y-114037116D01*
X125014501Y-114037123D01*
X125014500Y-114037135D01*
X123190000Y-114037135D01*
X123190000Y-113154000D01*
X123209685Y-113086961D01*
X123262489Y-113041206D01*
X123314000Y-113030000D01*
X134527219Y-113030000D01*
X134594258Y-113049685D01*
G37*
%TD.AperFunction*%
%TD*%
M02*
