%TF.GenerationSoftware,KiCad,Pcbnew,9.0.2*%
%TF.CreationDate,2025-07-18T09:27:23+08:00*%
%TF.ProjectId,Pathfinder,50617468-6669-46e6-9465-722e6b696361,rev?*%
%TF.SameCoordinates,Original*%
%TF.FileFunction,Soldermask,Top*%
%TF.FilePolarity,Negative*%
%FSLAX46Y46*%
G04 Gerber Fmt 4.6, Leading zero omitted, Abs format (unit mm)*
G04 Created by KiCad (PCBNEW 9.0.2) date 2025-07-18 09:27:23*
%MOMM*%
%LPD*%
G01*
G04 APERTURE LIST*
G04 Aperture macros list*
%AMRoundRect*
0 Rectangle with rounded corners*
0 $1 Rounding radius*
0 $2 $3 $4 $5 $6 $7 $8 $9 X,Y pos of 4 corners*
0 Add a 4 corners polygon primitive as box body*
4,1,4,$2,$3,$4,$5,$6,$7,$8,$9,$2,$3,0*
0 Add four circle primitives for the rounded corners*
1,1,$1+$1,$2,$3*
1,1,$1+$1,$4,$5*
1,1,$1+$1,$6,$7*
1,1,$1+$1,$8,$9*
0 Add four rect primitives between the rounded corners*
20,1,$1+$1,$2,$3,$4,$5,0*
20,1,$1+$1,$4,$5,$6,$7,0*
20,1,$1+$1,$6,$7,$8,$9,0*
20,1,$1+$1,$8,$9,$2,$3,0*%
G04 Aperture macros list end*
%ADD10RoundRect,0.250000X0.475000X-0.250000X0.475000X0.250000X-0.475000X0.250000X-0.475000X-0.250000X0*%
%ADD11C,3.000000*%
%ADD12RoundRect,0.102000X-0.765000X-0.765000X0.765000X-0.765000X0.765000X0.765000X-0.765000X0.765000X0*%
%ADD13C,1.734000*%
%ADD14C,2.000000*%
%ADD15R,1.700000X1.700000*%
%ADD16C,1.700000*%
%ADD17RoundRect,0.250000X-0.475000X0.250000X-0.475000X-0.250000X0.475000X-0.250000X0.475000X0.250000X0*%
%ADD18RoundRect,0.250000X0.262500X0.450000X-0.262500X0.450000X-0.262500X-0.450000X0.262500X-0.450000X0*%
%ADD19R,1.200000X1.000000*%
%ADD20RoundRect,0.250000X-0.262500X-0.450000X0.262500X-0.450000X0.262500X0.450000X-0.262500X0.450000X0*%
%ADD21R,1.422500X1.290500*%
%ADD22R,3.800000X4.800000*%
%ADD23RoundRect,0.098000X0.989000X0.294000X-0.989000X0.294000X-0.989000X-0.294000X0.989000X-0.294000X0*%
%ADD24RoundRect,0.102000X1.206500X1.651000X-1.206500X1.651000X-1.206500X-1.651000X1.206500X-1.651000X0*%
%ADD25R,2.311400X1.395952*%
%ADD26RoundRect,0.250000X0.450000X-0.262500X0.450000X0.262500X-0.450000X0.262500X-0.450000X-0.262500X0*%
%ADD27RoundRect,0.250000X-0.450000X0.262500X-0.450000X-0.262500X0.450000X-0.262500X0.450000X0.262500X0*%
%ADD28R,1.295400X4.597400*%
%ADD29C,6.204000*%
%ADD30RoundRect,0.102000X-3.000000X3.000000X-3.000000X-3.000000X3.000000X-3.000000X3.000000X3.000000X0*%
%ADD31RoundRect,0.250000X-0.250000X-0.475000X0.250000X-0.475000X0.250000X0.475000X-0.250000X0.475000X0*%
%ADD32RoundRect,0.225000X0.225000X0.250000X-0.225000X0.250000X-0.225000X-0.250000X0.225000X-0.250000X0*%
%ADD33C,1.829000*%
%ADD34RoundRect,0.250000X0.250000X0.475000X-0.250000X0.475000X-0.250000X-0.475000X0.250000X-0.475000X0*%
%ADD35RoundRect,0.225000X-0.225000X-0.250000X0.225000X-0.250000X0.225000X0.250000X-0.225000X0.250000X0*%
%ADD36RoundRect,0.098000X-0.989000X-0.294000X0.989000X-0.294000X0.989000X0.294000X-0.989000X0.294000X0*%
%ADD37RoundRect,0.102000X-1.206500X-1.651000X1.206500X-1.651000X1.206500X1.651000X-1.206500X1.651000X0*%
G04 APERTURE END LIST*
D10*
%TO.C,C7*%
X149557301Y-97790000D03*
X149557301Y-99690000D03*
%TD*%
D11*
%TO.C,U1*%
X126365000Y-78105000D03*
X159385000Y-130175000D03*
X174625000Y-79375000D03*
D12*
X118745000Y-81915000D03*
D13*
X121285000Y-81915000D03*
X118745000Y-84455000D03*
X121285000Y-84455000D03*
X118745000Y-86995000D03*
X121285000Y-86995000D03*
X118745000Y-89535000D03*
X121285000Y-89535000D03*
X118745000Y-92075000D03*
X121285000Y-92075000D03*
X118745000Y-94615000D03*
X121285000Y-94615000D03*
X118745000Y-97155000D03*
X121285000Y-97155000D03*
X118745000Y-99695000D03*
X121285000Y-99695000D03*
X118745000Y-102235000D03*
X121285000Y-102235000D03*
X118745000Y-104775000D03*
X121285000Y-104775000D03*
X118745000Y-107315000D03*
X121285000Y-107315000D03*
X118745000Y-109855000D03*
X121285000Y-109855000D03*
X118745000Y-112395000D03*
X121285000Y-112395000D03*
X118745000Y-114935000D03*
X121285000Y-114935000D03*
X118745000Y-117475000D03*
X121285000Y-117475000D03*
X118745000Y-120015000D03*
X121285000Y-120015000D03*
X118745000Y-122555000D03*
X121285000Y-122555000D03*
X118745000Y-125095000D03*
X121285000Y-125095000D03*
X118745000Y-127635000D03*
X121285000Y-127635000D03*
D12*
X179705000Y-81915000D03*
D13*
X182245000Y-81915000D03*
X179705000Y-84455000D03*
X182245000Y-84455000D03*
X179705000Y-86995000D03*
X182245000Y-86995000D03*
X179705000Y-89535000D03*
X182245000Y-89535000D03*
X179705000Y-92075000D03*
X182245000Y-92075000D03*
X179705000Y-94615000D03*
X182245000Y-94615000D03*
X179705000Y-97155000D03*
X182245000Y-97155000D03*
X179705000Y-99695000D03*
X182245000Y-99695000D03*
X179705000Y-102235000D03*
X182245000Y-102235000D03*
X179705000Y-104775000D03*
X182245000Y-104775000D03*
X179705000Y-107315000D03*
X182245000Y-107315000D03*
X179705000Y-109855000D03*
X182245000Y-109855000D03*
X179705000Y-112395000D03*
X182245000Y-112395000D03*
X179705000Y-114935000D03*
X182245000Y-114935000D03*
X179705000Y-117475000D03*
X182245000Y-117475000D03*
X179705000Y-120015000D03*
X182245000Y-120015000D03*
X179705000Y-122555000D03*
X182245000Y-122555000D03*
X179705000Y-125095000D03*
X182245000Y-125095000D03*
X179705000Y-127635000D03*
X182245000Y-127635000D03*
%TD*%
D10*
%TO.C,C8*%
X147320000Y-97795000D03*
X147320000Y-99695000D03*
%TD*%
D14*
%TO.C,SW2*%
X113085000Y-88115000D03*
X113085000Y-94615000D03*
X108585000Y-88115000D03*
X108585000Y-94615000D03*
%TD*%
D15*
%TO.C,Coxa2*%
X126365000Y-88265000D03*
D16*
X128905000Y-88265000D03*
X131445000Y-88265000D03*
%TD*%
D17*
%TO.C,C5*%
X154445000Y-93345000D03*
X154445000Y-95245000D03*
%TD*%
D15*
%TO.C,Femur1*%
X126365000Y-105410000D03*
D16*
X128905000Y-105410000D03*
X131445000Y-105410000D03*
%TD*%
D15*
%TO.C,Tibia5*%
X126365000Y-122555000D03*
D16*
X128905000Y-122555000D03*
X131445000Y-122555000D03*
%TD*%
D18*
%TO.C,R7*%
X132080000Y-134770000D03*
X130255000Y-134770000D03*
%TD*%
D19*
%TO.C,D5*%
X107220000Y-121285000D03*
X109220000Y-121285000D03*
%TD*%
D20*
%TO.C,R9*%
X111887500Y-116840000D03*
X113712500Y-116840000D03*
%TD*%
D15*
%TO.C,Tibia1*%
X126365000Y-109220000D03*
D16*
X128905000Y-109220000D03*
X131445000Y-109220000D03*
%TD*%
D15*
%TO.C,U2*%
X135255000Y-73660000D03*
D16*
X132715000Y-73660000D03*
X135255000Y-71120000D03*
X132715000Y-71120000D03*
X135255000Y-68580000D03*
X132715000Y-68580000D03*
X135255000Y-66040000D03*
X132715000Y-66040000D03*
%TD*%
D21*
%TO.C,D7*%
X147540000Y-109911000D03*
D22*
X148590000Y-106045000D03*
D21*
X149640000Y-109911000D03*
%TD*%
D23*
%TO.C,BuckConverterB1*%
X157975000Y-101595000D03*
X157975000Y-100325000D03*
X157975000Y-99055000D03*
X157975000Y-97785000D03*
X153035000Y-97785000D03*
X153035000Y-99055000D03*
X153035000Y-100325000D03*
X153035000Y-101595000D03*
D24*
X155505000Y-99690000D03*
%TD*%
D25*
%TO.C,C2*%
X137795000Y-92671376D03*
X137795000Y-95288624D03*
%TD*%
%TO.C,C3*%
X140335000Y-88938624D03*
X140335000Y-86321376D03*
%TD*%
D19*
%TO.C,D4*%
X107220000Y-116840000D03*
X109220000Y-116840000D03*
%TD*%
D26*
%TO.C,R5*%
X156845000Y-119060000D03*
X156845000Y-117235000D03*
%TD*%
D25*
%TO.C,C9*%
X163830000Y-105332752D03*
X163830000Y-107950000D03*
%TD*%
D15*
%TO.C,Femur3*%
X174625000Y-92060000D03*
D16*
X172085000Y-92060000D03*
X169545000Y-92060000D03*
%TD*%
D27*
%TO.C,R1*%
X143015000Y-92432500D03*
X143015000Y-94257500D03*
%TD*%
D15*
%TO.C,Coxa4*%
X174625000Y-101600000D03*
D16*
X172085000Y-101600000D03*
X169545000Y-101600000D03*
%TD*%
D14*
%TO.C,SW1*%
X132135000Y-137795000D03*
X132135000Y-144295000D03*
X127635000Y-137795000D03*
X127635000Y-144295000D03*
%TD*%
D20*
%TO.C,R6*%
X157480000Y-115250000D03*
X159305000Y-115250000D03*
%TD*%
D15*
%TO.C,Coxa5*%
X126365000Y-114935000D03*
D16*
X128905000Y-114935000D03*
X131445000Y-114935000D03*
%TD*%
D26*
%TO.C,R4*%
X161290000Y-96595000D03*
X161290000Y-94770000D03*
%TD*%
D28*
%TO.C,L3*%
X151665398Y-127320000D03*
X154870000Y-127320000D03*
%TD*%
D25*
%TO.C,C15*%
X160020000Y-123825000D03*
X160020000Y-126442248D03*
%TD*%
D15*
%TO.C,Tibia3*%
X174625000Y-95885000D03*
D16*
X172085000Y-95885000D03*
X169545000Y-95885000D03*
%TD*%
D15*
%TO.C,Tibia2*%
X126365000Y-95885000D03*
D16*
X128905000Y-95885000D03*
X131445000Y-95885000D03*
%TD*%
D28*
%TO.C,L1*%
X150000000Y-84455000D03*
X146795398Y-84455000D03*
%TD*%
D10*
%TO.C,C13*%
X146050000Y-118105000D03*
X146050000Y-116205000D03*
%TD*%
D29*
%TO.C,J1*%
X139700000Y-111340000D03*
D30*
X139700000Y-104140000D03*
%TD*%
D25*
%TO.C,C10*%
X165432301Y-100965000D03*
X165432301Y-98347752D03*
%TD*%
D15*
%TO.C,Coxa3*%
X174625000Y-88265000D03*
D16*
X172085000Y-88265000D03*
X169545000Y-88265000D03*
%TD*%
D23*
%TO.C,BuckConverterC1*%
X154165000Y-120650000D03*
X154165000Y-119380000D03*
X154165000Y-118110000D03*
X154165000Y-116840000D03*
X149225000Y-116840000D03*
X149225000Y-118110000D03*
X149225000Y-119380000D03*
X149225000Y-120650000D03*
D24*
X151695000Y-118745000D03*
%TD*%
D31*
%TO.C,C16*%
X133350000Y-77470000D03*
X135250000Y-77470000D03*
%TD*%
D27*
%TO.C,R8*%
X113665000Y-99140000D03*
X113665000Y-100965000D03*
%TD*%
D25*
%TO.C,C14*%
X162560000Y-118745000D03*
X162560000Y-116127752D03*
%TD*%
D15*
%TO.C,Femur6*%
X174625000Y-118745000D03*
D16*
X172085000Y-118745000D03*
X169545000Y-118745000D03*
%TD*%
D32*
%TO.C,C11*%
X153740000Y-122555000D03*
X152190000Y-122555000D03*
%TD*%
D15*
%TO.C,Femur4*%
X174625000Y-105395000D03*
D16*
X172085000Y-105395000D03*
X169545000Y-105395000D03*
%TD*%
D33*
%TO.C,Bno055*%
X152400000Y-136652000D03*
X144780000Y-154432000D03*
X149860000Y-136652000D03*
X147320000Y-154432000D03*
X152400000Y-154432000D03*
X149860000Y-154432000D03*
X142240000Y-136652000D03*
X144780000Y-136652000D03*
X147320000Y-136652000D03*
X154940000Y-136652000D03*
%TD*%
D15*
%TO.C,Tibia4*%
X174625000Y-109220000D03*
D16*
X172085000Y-109220000D03*
X169545000Y-109220000D03*
%TD*%
D32*
%TO.C,C6*%
X157620000Y-103500000D03*
X156070000Y-103500000D03*
%TD*%
D15*
%TO.C,Coxa6*%
X174625000Y-114935000D03*
D16*
X172085000Y-114935000D03*
X169545000Y-114935000D03*
%TD*%
D17*
%TO.C,C4*%
X156845000Y-93345000D03*
X156845000Y-95245000D03*
%TD*%
D28*
%TO.C,L2*%
X154305000Y-108580000D03*
X157509602Y-108580000D03*
%TD*%
D34*
%TO.C,C12*%
X143510000Y-118745000D03*
X141610000Y-118745000D03*
%TD*%
D21*
%TO.C,D1*%
X156625000Y-83764000D03*
D22*
X155575000Y-87630000D03*
D21*
X154525000Y-83764000D03*
%TD*%
D26*
%TO.C,R3*%
X161290000Y-100325000D03*
X161290000Y-98500000D03*
%TD*%
D21*
%TO.C,D3*%
X145000000Y-129276000D03*
D22*
X146050000Y-125410000D03*
D21*
X147100000Y-129276000D03*
%TD*%
D15*
%TO.C,Coxa1*%
X126365000Y-101600000D03*
D16*
X128905000Y-101600000D03*
X131445000Y-101600000D03*
%TD*%
D20*
%TO.C,R10*%
X111887500Y-121285000D03*
X113712500Y-121285000D03*
%TD*%
D15*
%TO.C,Tibia6*%
X174625000Y-122555000D03*
D16*
X172085000Y-122555000D03*
X169545000Y-122555000D03*
%TD*%
D27*
%TO.C,R2*%
X143015000Y-96242500D03*
X143015000Y-98067500D03*
%TD*%
D35*
%TO.C,C1*%
X146190000Y-89535000D03*
X147740000Y-89535000D03*
%TD*%
D15*
%TO.C,Femur5*%
X126365000Y-118745000D03*
D16*
X128905000Y-118745000D03*
X131445000Y-118745000D03*
%TD*%
D15*
%TO.C,Femur2*%
X126365000Y-92075000D03*
D16*
X128905000Y-92075000D03*
X131445000Y-92075000D03*
%TD*%
D36*
%TO.C,BuckConverterA1*%
X146190000Y-91440000D03*
X146190000Y-92710000D03*
X146190000Y-93980000D03*
X146190000Y-95250000D03*
X151130000Y-95250000D03*
X151130000Y-93980000D03*
X151130000Y-92710000D03*
X151130000Y-91440000D03*
D37*
X148660000Y-93345000D03*
%TD*%
M02*
