%TF.GenerationSoftware,KiCad,Pcbnew,9.0.2*%
%TF.CreationDate,2025-07-18T09:27:23+08:00*%
%TF.ProjectId,Pathfinder,50617468-6669-46e6-9465-722e6b696361,rev?*%
%TF.SameCoordinates,Original*%
%TF.FileFunction,Soldermask,Bot*%
%TF.FilePolarity,Negative*%
%FSLAX46Y46*%
G04 Gerber Fmt 4.6, Leading zero omitted, Abs format (unit mm)*
G04 Created by KiCad (PCBNEW 9.0.2) date 2025-07-18 09:27:23*
%MOMM*%
%LPD*%
G01*
G04 APERTURE LIST*
G04 Aperture macros list*
%AMRoundRect*
0 Rectangle with rounded corners*
0 $1 Rounding radius*
0 $2 $3 $4 $5 $6 $7 $8 $9 X,Y pos of 4 corners*
0 Add a 4 corners polygon primitive as box body*
4,1,4,$2,$3,$4,$5,$6,$7,$8,$9,$2,$3,0*
0 Add four circle primitives for the rounded corners*
1,1,$1+$1,$2,$3*
1,1,$1+$1,$4,$5*
1,1,$1+$1,$6,$7*
1,1,$1+$1,$8,$9*
0 Add four rect primitives between the rounded corners*
20,1,$1+$1,$2,$3,$4,$5,0*
20,1,$1+$1,$4,$5,$6,$7,0*
20,1,$1+$1,$6,$7,$8,$9,0*
20,1,$1+$1,$8,$9,$2,$3,0*%
G04 Aperture macros list end*
%ADD10C,3.000000*%
%ADD11RoundRect,0.102000X-0.765000X-0.765000X0.765000X-0.765000X0.765000X0.765000X-0.765000X0.765000X0*%
%ADD12C,1.734000*%
%ADD13C,2.000000*%
%ADD14R,1.700000X1.700000*%
%ADD15C,1.700000*%
%ADD16C,6.204000*%
%ADD17RoundRect,0.102000X-3.000000X3.000000X-3.000000X-3.000000X3.000000X-3.000000X3.000000X3.000000X0*%
%ADD18C,1.829000*%
G04 APERTURE END LIST*
D10*
%TO.C,U1*%
X126365000Y-78105000D03*
X159385000Y-130175000D03*
X174625000Y-79375000D03*
D11*
X118745000Y-81915000D03*
D12*
X121285000Y-81915000D03*
X118745000Y-84455000D03*
X121285000Y-84455000D03*
X118745000Y-86995000D03*
X121285000Y-86995000D03*
X118745000Y-89535000D03*
X121285000Y-89535000D03*
X118745000Y-92075000D03*
X121285000Y-92075000D03*
X118745000Y-94615000D03*
X121285000Y-94615000D03*
X118745000Y-97155000D03*
X121285000Y-97155000D03*
X118745000Y-99695000D03*
X121285000Y-99695000D03*
X118745000Y-102235000D03*
X121285000Y-102235000D03*
X118745000Y-104775000D03*
X121285000Y-104775000D03*
X118745000Y-107315000D03*
X121285000Y-107315000D03*
X118745000Y-109855000D03*
X121285000Y-109855000D03*
X118745000Y-112395000D03*
X121285000Y-112395000D03*
X118745000Y-114935000D03*
X121285000Y-114935000D03*
X118745000Y-117475000D03*
X121285000Y-117475000D03*
X118745000Y-120015000D03*
X121285000Y-120015000D03*
X118745000Y-122555000D03*
X121285000Y-122555000D03*
X118745000Y-125095000D03*
X121285000Y-125095000D03*
X118745000Y-127635000D03*
X121285000Y-127635000D03*
D11*
X179705000Y-81915000D03*
D12*
X182245000Y-81915000D03*
X179705000Y-84455000D03*
X182245000Y-84455000D03*
X179705000Y-86995000D03*
X182245000Y-86995000D03*
X179705000Y-89535000D03*
X182245000Y-89535000D03*
X179705000Y-92075000D03*
X182245000Y-92075000D03*
X179705000Y-94615000D03*
X182245000Y-94615000D03*
X179705000Y-97155000D03*
X182245000Y-97155000D03*
X179705000Y-99695000D03*
X182245000Y-99695000D03*
X179705000Y-102235000D03*
X182245000Y-102235000D03*
X179705000Y-104775000D03*
X182245000Y-104775000D03*
X179705000Y-107315000D03*
X182245000Y-107315000D03*
X179705000Y-109855000D03*
X182245000Y-109855000D03*
X179705000Y-112395000D03*
X182245000Y-112395000D03*
X179705000Y-114935000D03*
X182245000Y-114935000D03*
X179705000Y-117475000D03*
X182245000Y-117475000D03*
X179705000Y-120015000D03*
X182245000Y-120015000D03*
X179705000Y-122555000D03*
X182245000Y-122555000D03*
X179705000Y-125095000D03*
X182245000Y-125095000D03*
X179705000Y-127635000D03*
X182245000Y-127635000D03*
%TD*%
D13*
%TO.C,SW2*%
X113085000Y-88115000D03*
X113085000Y-94615000D03*
X108585000Y-88115000D03*
X108585000Y-94615000D03*
%TD*%
D14*
%TO.C,Coxa2*%
X126365000Y-88265000D03*
D15*
X128905000Y-88265000D03*
X131445000Y-88265000D03*
%TD*%
D14*
%TO.C,Femur1*%
X126365000Y-105410000D03*
D15*
X128905000Y-105410000D03*
X131445000Y-105410000D03*
%TD*%
D14*
%TO.C,Tibia5*%
X126365000Y-122555000D03*
D15*
X128905000Y-122555000D03*
X131445000Y-122555000D03*
%TD*%
D14*
%TO.C,Tibia1*%
X126365000Y-109220000D03*
D15*
X128905000Y-109220000D03*
X131445000Y-109220000D03*
%TD*%
D14*
%TO.C,U2*%
X135255000Y-73660000D03*
D15*
X132715000Y-73660000D03*
X135255000Y-71120000D03*
X132715000Y-71120000D03*
X135255000Y-68580000D03*
X132715000Y-68580000D03*
X135255000Y-66040000D03*
X132715000Y-66040000D03*
%TD*%
D14*
%TO.C,Femur3*%
X174625000Y-92060000D03*
D15*
X172085000Y-92060000D03*
X169545000Y-92060000D03*
%TD*%
D14*
%TO.C,Coxa4*%
X174625000Y-101600000D03*
D15*
X172085000Y-101600000D03*
X169545000Y-101600000D03*
%TD*%
D13*
%TO.C,SW1*%
X132135000Y-137795000D03*
X132135000Y-144295000D03*
X127635000Y-137795000D03*
X127635000Y-144295000D03*
%TD*%
D14*
%TO.C,Coxa5*%
X126365000Y-114935000D03*
D15*
X128905000Y-114935000D03*
X131445000Y-114935000D03*
%TD*%
D14*
%TO.C,Tibia3*%
X174625000Y-95885000D03*
D15*
X172085000Y-95885000D03*
X169545000Y-95885000D03*
%TD*%
D14*
%TO.C,Tibia2*%
X126365000Y-95885000D03*
D15*
X128905000Y-95885000D03*
X131445000Y-95885000D03*
%TD*%
D16*
%TO.C,J1*%
X139700000Y-111340000D03*
D17*
X139700000Y-104140000D03*
%TD*%
D14*
%TO.C,Coxa3*%
X174625000Y-88265000D03*
D15*
X172085000Y-88265000D03*
X169545000Y-88265000D03*
%TD*%
D14*
%TO.C,Femur6*%
X174625000Y-118745000D03*
D15*
X172085000Y-118745000D03*
X169545000Y-118745000D03*
%TD*%
D14*
%TO.C,Femur4*%
X174625000Y-105395000D03*
D15*
X172085000Y-105395000D03*
X169545000Y-105395000D03*
%TD*%
D18*
%TO.C,Bno055*%
X152400000Y-136652000D03*
X144780000Y-154432000D03*
X149860000Y-136652000D03*
X147320000Y-154432000D03*
X152400000Y-154432000D03*
X149860000Y-154432000D03*
X142240000Y-136652000D03*
X144780000Y-136652000D03*
X147320000Y-136652000D03*
X154940000Y-136652000D03*
%TD*%
D14*
%TO.C,Tibia4*%
X174625000Y-109220000D03*
D15*
X172085000Y-109220000D03*
X169545000Y-109220000D03*
%TD*%
D14*
%TO.C,Coxa6*%
X174625000Y-114935000D03*
D15*
X172085000Y-114935000D03*
X169545000Y-114935000D03*
%TD*%
D14*
%TO.C,Coxa1*%
X126365000Y-101600000D03*
D15*
X128905000Y-101600000D03*
X131445000Y-101600000D03*
%TD*%
D14*
%TO.C,Tibia6*%
X174625000Y-122555000D03*
D15*
X172085000Y-122555000D03*
X169545000Y-122555000D03*
%TD*%
D14*
%TO.C,Femur5*%
X126365000Y-118745000D03*
D15*
X128905000Y-118745000D03*
X131445000Y-118745000D03*
%TD*%
D14*
%TO.C,Femur2*%
X126365000Y-92075000D03*
D15*
X128905000Y-92075000D03*
X131445000Y-92075000D03*
%TD*%
M02*
