%TF.GenerationSoftware,KiCad,Pcbnew,9.0.2*%
%TF.CreationDate,2025-07-18T09:27:23+08:00*%
%TF.ProjectId,Pathfinder,50617468-6669-46e6-9465-722e6b696361,rev?*%
%TF.SameCoordinates,Original*%
%TF.FileFunction,Copper,L3,Inr*%
%TF.FilePolarity,Positive*%
%FSLAX46Y46*%
G04 Gerber Fmt 4.6, Leading zero omitted, Abs format (unit mm)*
G04 Created by KiCad (PCBNEW 9.0.2) date 2025-07-18 09:27:23*
%MOMM*%
%LPD*%
G01*
G04 APERTURE LIST*
%TA.AperFunction,ComponentPad*%
%ADD10R,1.530000X1.530000*%
%TD*%
%TA.AperFunction,ComponentPad*%
%ADD11C,1.530000*%
%TD*%
%TA.AperFunction,ComponentPad*%
%ADD12C,2.000000*%
%TD*%
%TA.AperFunction,ComponentPad*%
%ADD13R,1.700000X1.700000*%
%TD*%
%TA.AperFunction,ComponentPad*%
%ADD14C,1.700000*%
%TD*%
%TA.AperFunction,ComponentPad*%
%ADD15C,6.000000*%
%TD*%
%TA.AperFunction,ComponentPad*%
%ADD16R,6.000000X6.000000*%
%TD*%
%TA.AperFunction,ComponentPad*%
%ADD17C,1.829000*%
%TD*%
G04 APERTURE END LIST*
D10*
%TO.N,/SCK*%
%TO.C,U1*%
X118745000Y-81915000D03*
D11*
%TO.N,/MISO*%
X121285000Y-81915000D03*
%TO.N,/MOSI*%
X118745000Y-84455000D03*
%TO.N,/CSN*%
X121285000Y-84455000D03*
%TO.N,unconnected-(U1A-VDD-PadCN7_5)*%
X118745000Y-86995000D03*
%TO.N,unconnected-(U1A-E5V-PadCN7_6)*%
X121285000Y-86995000D03*
%TO.N,unconnected-(U1A-BOOT0-PadCN7_7)*%
X118745000Y-89535000D03*
%TO.N,GND*%
X121285000Y-89535000D03*
%TO.N,N/C*%
X118745000Y-92075000D03*
X121285000Y-92075000D03*
X118745000Y-94615000D03*
%TO.N,unconnected-(U1A-CN7_IOREF-PadCN7_12)*%
X121285000Y-94615000D03*
%TO.N,/CE*%
X118745000Y-97155000D03*
%TO.N,Net-(U1A-CN7_RESET)*%
X121285000Y-97155000D03*
%TO.N,unconnected-(U1A-PA14-PadCN7_15)*%
X118745000Y-99695000D03*
%TO.N,+3.3V*%
X121285000Y-99695000D03*
%TO.N,unconnected-(U1A-PA15-PadCN7_17)*%
X118745000Y-102235000D03*
%TO.N,unconnected-(U1A-CN7_+5V-PadCN7_18)*%
X121285000Y-102235000D03*
%TO.N,GND*%
X118745000Y-104775000D03*
X121285000Y-104775000D03*
%TO.N,unconnected-(U1A-PB7-PadCN7_21)*%
X118745000Y-107315000D03*
%TO.N,GND*%
X121285000Y-107315000D03*
%TO.N,unconnected-(U1A-PC13-PadCN7_23)*%
X118745000Y-109855000D03*
%TO.N,+BATT*%
X121285000Y-109855000D03*
%TO.N,unconnected-(U1A-PC14-PadCN7_25)*%
X118745000Y-112395000D03*
%TO.N,N/C*%
X121285000Y-112395000D03*
%TO.N,unconnected-(U1A-PC15-PadCN7_27)*%
X118745000Y-114935000D03*
%TO.N,/PA_0*%
X121285000Y-114935000D03*
%TO.N,/PH_0*%
X118745000Y-117475000D03*
%TO.N,/PA_1*%
X121285000Y-117475000D03*
%TO.N,/PH_1*%
X118745000Y-120015000D03*
%TO.N,unconnected-(U1A-PA4-PadCN7_32)*%
X121285000Y-120015000D03*
%TO.N,unconnected-(U1A-VBAT-PadCN7_33)*%
X118745000Y-122555000D03*
%TO.N,/PB_0*%
X121285000Y-122555000D03*
%TO.N,unconnected-(U1A-PC2-PadCN7_35)*%
X118745000Y-125095000D03*
%TO.N,/SDA*%
X121285000Y-125095000D03*
%TO.N,unconnected-(U1A-PC3-PadCN7_37)*%
X118745000Y-127635000D03*
%TO.N,/SCL*%
X121285000Y-127635000D03*
D10*
%TO.N,/PC_9*%
X179705000Y-81915000D03*
D11*
%TO.N,unconnected-(U1B-PC8-PadCN10_2)*%
X182245000Y-81915000D03*
%TO.N,/PB_8*%
X179705000Y-84455000D03*
%TO.N,unconnected-(U1B-PC6-PadCN10_4)*%
X182245000Y-84455000D03*
%TO.N,/PB_9*%
X179705000Y-86995000D03*
%TO.N,unconnected-(U1B-PC5-PadCN10_6)*%
X182245000Y-86995000D03*
%TO.N,unconnected-(U1B-AVDD-PadCN10_7)*%
X179705000Y-89535000D03*
%TO.N,unconnected-(U1B-U5V-PadCN10_8)*%
X182245000Y-89535000D03*
%TO.N,GND*%
X179705000Y-92075000D03*
%TO.N,N/C*%
X182245000Y-92075000D03*
%TO.N,/PA_5*%
X179705000Y-94615000D03*
%TO.N,unconnected-(U1B-PA12-PadCN10_12)*%
X182245000Y-94615000D03*
%TO.N,/PA_6*%
X179705000Y-97155000D03*
%TO.N,unconnected-(U1B-PA11-PadCN10_14)*%
X182245000Y-97155000D03*
%TO.N,/PA_7*%
X179705000Y-99695000D03*
%TO.N,unconnected-(U1B-PB12-PadCN10_16)*%
X182245000Y-99695000D03*
%TO.N,/PB_6*%
X179705000Y-102235000D03*
%TO.N,N/C*%
X182245000Y-102235000D03*
%TO.N,/PC_7*%
X179705000Y-104775000D03*
%TO.N,GND*%
X182245000Y-104775000D03*
%TO.N,/PA_9*%
X179705000Y-107315000D03*
%TO.N,unconnected-(U1B-PB2-PadCN10_22)*%
X182245000Y-107315000D03*
%TO.N,/PA_8*%
X179705000Y-109855000D03*
%TO.N,unconnected-(U1B-PB1-PadCN10_24)*%
X182245000Y-109855000D03*
%TO.N,/PB_10*%
X179705000Y-112395000D03*
%TO.N,unconnected-(U1B-PB15-PadCN10_26)*%
X182245000Y-112395000D03*
%TO.N,/PB_4*%
X179705000Y-114935000D03*
%TO.N,unconnected-(U1B-PB14-PadCN10_28)*%
X182245000Y-114935000D03*
%TO.N,/PB_5*%
X179705000Y-117475000D03*
%TO.N,unconnected-(U1B-PB13-PadCN10_30)*%
X182245000Y-117475000D03*
%TO.N,/PB_3*%
X179705000Y-120015000D03*
%TO.N,unconnected-(U1B-AGND-PadCN10_32)*%
X182245000Y-120015000D03*
%TO.N,/PA_10*%
X179705000Y-122555000D03*
%TO.N,unconnected-(U1B-PC4-PadCN10_34)*%
X182245000Y-122555000D03*
%TO.N,unconnected-(U1B-PA2-PadCN10_35)*%
X179705000Y-125095000D03*
%TO.N,N/C*%
X182245000Y-125095000D03*
%TO.N,unconnected-(U1B-PA3-PadCN10_37)*%
X179705000Y-127635000D03*
%TO.N,N/C*%
X182245000Y-127635000D03*
%TD*%
D12*
%TO.N,N/C*%
%TO.C,SW2*%
X113085000Y-88115000D03*
%TO.N,Net-(U1A-CN7_RESET)*%
X113085000Y-94615000D03*
%TO.N,GND*%
X108585000Y-88115000D03*
X108585000Y-94615000D03*
%TD*%
D13*
%TO.N,/PC_9*%
%TO.C,Coxa2*%
X126365000Y-88265000D03*
D14*
%TO.N,+6VA*%
X128905000Y-88265000D03*
%TO.N,GND*%
X131445000Y-88265000D03*
%TD*%
D13*
%TO.N,/PA_6*%
%TO.C,Femur1*%
X126365000Y-105410000D03*
D14*
%TO.N,+6VA*%
X128905000Y-105410000D03*
%TO.N,GND*%
X131445000Y-105410000D03*
%TD*%
D13*
%TO.N,/PB_0*%
%TO.C,Tibia5*%
X126365000Y-122555000D03*
D14*
%TO.N,+6VC*%
X128905000Y-122555000D03*
%TO.N,GND*%
X131445000Y-122555000D03*
%TD*%
D13*
%TO.N,/PA_7*%
%TO.C,Tibia1*%
X126365000Y-109220000D03*
D14*
%TO.N,+6VA*%
X128905000Y-109220000D03*
%TO.N,GND*%
X131445000Y-109220000D03*
%TD*%
D13*
%TO.N,GND*%
%TO.C,U2*%
X135255000Y-73660000D03*
D14*
%TO.N,+3.3V*%
X132715000Y-73660000D03*
%TO.N,/CE*%
X135255000Y-71120000D03*
%TO.N,/CSN*%
X132715000Y-71120000D03*
%TO.N,/SCK*%
X135255000Y-68580000D03*
%TO.N,/MOSI*%
X132715000Y-68580000D03*
%TO.N,/MISO*%
X135255000Y-66040000D03*
%TO.N,unconnected-(U2-IRQ-Pad8)*%
X132715000Y-66040000D03*
%TD*%
D13*
%TO.N,/PC_7*%
%TO.C,Femur3*%
X174625000Y-92060000D03*
D14*
%TO.N,+6VB*%
X172085000Y-92060000D03*
%TO.N,GND*%
X169545000Y-92060000D03*
%TD*%
D13*
%TO.N,/PA_8*%
%TO.C,Coxa4*%
X174625000Y-101600000D03*
D14*
%TO.N,+6VB*%
X172085000Y-101600000D03*
%TO.N,GND*%
X169545000Y-101600000D03*
%TD*%
D12*
%TO.N,Net-(Bno055-RST)*%
%TO.C,SW1*%
X132135000Y-137795000D03*
%TO.N,N/C*%
X132135000Y-144295000D03*
%TO.N,GND*%
X127635000Y-137795000D03*
X127635000Y-144295000D03*
%TD*%
D13*
%TO.N,/PA_0*%
%TO.C,Coxa5*%
X126365000Y-114935000D03*
D14*
%TO.N,+6VC*%
X128905000Y-114935000D03*
%TO.N,GND*%
X131445000Y-114935000D03*
%TD*%
D13*
%TO.N,/PA_9*%
%TO.C,Tibia3*%
X174625000Y-95885000D03*
D14*
%TO.N,+6VB*%
X172085000Y-95885000D03*
%TO.N,GND*%
X169545000Y-95885000D03*
%TD*%
D13*
%TO.N,/PB_9*%
%TO.C,Tibia2*%
X126365000Y-95885000D03*
D14*
%TO.N,+6VA*%
X128905000Y-95885000D03*
%TO.N,GND*%
X131445000Y-95885000D03*
%TD*%
D15*
%TO.N,GND*%
%TO.C,J1*%
X139700000Y-111340000D03*
D16*
%TO.N,+BATT*%
X139700000Y-104140000D03*
%TD*%
D13*
%TO.N,/PB_6*%
%TO.C,Coxa3*%
X174625000Y-88265000D03*
D14*
%TO.N,+6VB*%
X172085000Y-88265000D03*
%TO.N,GND*%
X169545000Y-88265000D03*
%TD*%
D13*
%TO.N,/PB_3*%
%TO.C,Femur6*%
X174625000Y-118745000D03*
D14*
%TO.N,+6VC*%
X172085000Y-118745000D03*
%TO.N,GND*%
X169545000Y-118745000D03*
%TD*%
D13*
%TO.N,/PB_10*%
%TO.C,Femur4*%
X174625000Y-105395000D03*
D14*
%TO.N,+6VB*%
X172085000Y-105395000D03*
%TO.N,GND*%
X169545000Y-105395000D03*
%TD*%
D17*
%TO.N,N/C*%
%TO.C,Bno055*%
X152400000Y-136652000D03*
X144780000Y-154432000D03*
%TO.N,GND*%
X149860000Y-136652000D03*
%TO.N,N/C*%
X147320000Y-154432000D03*
X152400000Y-154432000D03*
X149860000Y-154432000D03*
%TO.N,Net-(Bno055-RST)*%
X142240000Y-136652000D03*
%TO.N,/SCL*%
X144780000Y-136652000D03*
%TO.N,/SDA*%
X147320000Y-136652000D03*
%TO.N,+3.3V*%
X154940000Y-136652000D03*
%TD*%
D13*
%TO.N,/PB_4*%
%TO.C,Tibia4*%
X174625000Y-109220000D03*
D14*
%TO.N,+6VB*%
X172085000Y-109220000D03*
%TO.N,GND*%
X169545000Y-109220000D03*
%TD*%
D13*
%TO.N,/PB_5*%
%TO.C,Coxa6*%
X174625000Y-114935000D03*
D14*
%TO.N,+6VC*%
X172085000Y-114935000D03*
%TO.N,GND*%
X169545000Y-114935000D03*
%TD*%
D13*
%TO.N,/PA_5*%
%TO.C,Coxa1*%
X126365000Y-101600000D03*
D14*
%TO.N,+6VA*%
X128905000Y-101600000D03*
%TO.N,GND*%
X131445000Y-101600000D03*
%TD*%
D13*
%TO.N,/PA_10*%
%TO.C,Tibia6*%
X174625000Y-122555000D03*
D14*
%TO.N,+6VC*%
X172085000Y-122555000D03*
%TO.N,GND*%
X169545000Y-122555000D03*
%TD*%
D13*
%TO.N,/PA_1*%
%TO.C,Femur5*%
X126365000Y-118745000D03*
D14*
%TO.N,+6VC*%
X128905000Y-118745000D03*
%TO.N,GND*%
X131445000Y-118745000D03*
%TD*%
D13*
%TO.N,/PB_8*%
%TO.C,Femur2*%
X126365000Y-92075000D03*
D14*
%TO.N,+6VA*%
X128905000Y-92075000D03*
%TO.N,GND*%
X131445000Y-92075000D03*
%TD*%
M02*
